<svg width="32" height="32" viewBox="0 0 32 32" fill="none" xmlns="http://www.w3.org/2000/svg">
<path d="M16.0357 7.75C20.5357 7.75 24.25 11.4643 24.25 15.9643C24.25 20.5357 20.5357 24.1786 16.0357 24.1786C11.4643 24.1786 7.82143 20.5357 7.82143 15.9643C7.82143 11.4643 11.4643 7.75 16.0357 7.75ZM16.0357 21.3214C18.9643 21.3214 21.3214 18.9643 21.3214 15.9643C21.3214 13.0357 18.9643 10.6786 16.0357 10.6786C13.0357 10.6786 10.6786 13.0357 10.6786 15.9643C10.6786 18.9643 13.1071 21.3214 16.0357 21.3214ZM26.4643 7.46429C26.4643 6.39286 25.6071 5.53571 24.5357 5.53571C23.4643 5.53571 22.6071 6.39286 22.6071 7.46429C22.6071 8.53571 23.4643 9.39286 24.5357 9.39286C25.6071 9.39286 26.4643 8.53571 26.4643 7.46429ZM31.8929 9.39286C32.0357 12.0357 32.0357 19.9643 31.8929 22.6071C31.75 25.1786 31.1786 27.3929 29.3214 29.3214C27.4643 31.1786 25.1786 31.75 22.6071 31.8929C19.9643 32.0357 12.0357 32.0357 9.39286 31.8929C6.82143 31.75 4.60714 31.1786 2.67857 29.3214C0.821429 27.3929 0.25 25.1786 0.107143 22.6071C-0.0357143 19.9643 -0.0357143 12.0357 0.107143 9.39286C0.25 6.82143 0.821429 4.53571 2.67857 2.67857C4.60714 0.821429 6.82143 0.25 9.39286 0.107143C12.0357 -0.0357143 19.9643 -0.0357143 22.6071 0.107143C25.1786 0.25 27.4643 0.821429 29.3214 2.67857C31.1786 4.53571 31.75 6.82143 31.8929 9.39286ZM28.4643 25.3929C29.3214 23.3214 29.1071 18.3214 29.1071 15.9643C29.1071 13.6786 29.3214 8.67857 28.4643 6.53571C27.8929 5.17857 26.8214 4.03571 25.4643 3.53571C23.3214 2.67857 18.3214 2.89286 16.0357 2.89286C13.6786 2.89286 8.67857 2.67857 6.60714 3.53571C5.17857 4.10714 4.10714 5.17857 3.53571 6.53571C2.67857 8.67857 2.89286 13.6786 2.89286 15.9643C2.89286 18.3214 2.67857 23.3214 3.53571 25.3929C4.10714 26.8214 5.17857 27.8929 6.60714 28.4643C8.67857 29.3214 13.6786 29.1071 16.0357 29.1071C18.3214 29.1071 23.3214 29.3214 25.4643 28.4643C26.8214 27.8929 27.9643 26.8214 28.4643 25.3929Z" fill="#FDF3E0"/>
</svg>
