<svg width="186" height="96" viewBox="0 0 186 96" fill="none" xmlns="http://www.w3.org/2000/svg">
<path d="M33.4131 57.6527C30.5006 55.0368 27.5882 52.4209 24.766 49.7256C28.6411 49.444 32.4249 49.2166 36.2116 49.0574C37.154 49.0178 37.5073 48.7289 37.4388 47.7465C37.2462 44.9804 37.1117 42.2094 37.014 39.4382C36.9965 38.9413 37.264 38.4343 37.3999 37.932C37.7822 38.2322 38.2675 38.4615 38.5303 38.844C40.5138 41.7315 42.4514 44.6505 44.4079 47.5566C45.396 49.0242 47.0056 48.9571 47.8155 47.4132C49.498 44.2058 51.1607 40.9878 52.8728 37.7963C53.046 37.4735 53.5007 37.3019 53.8248 37.0601C53.976 37.4026 54.238 37.7378 54.261 38.0887C54.4501 40.9778 54.6216 43.8688 54.7378 46.7617C54.7756 47.7033 55.0946 48.0562 56.0699 47.991C59.8108 47.7409 63.5548 47.5258 67.3003 47.3615C68.2203 47.3212 68.5054 46.993 68.4476 46.1036C68.2547 43.133 68.1228 40.1584 67.9488 37.1864C67.4655 28.9291 66.9688 20.6727 66.4965 12.4148C66.4754 12.0455 66.6428 11.6655 66.7223 11.2904C67.4515 13.2158 68.1992 15.1345 68.9056 17.0683C70.0196 20.1175 71.1057 23.1768 72.297 26.3807C72.699 29.4059 73.1558 32.2766 73.2671 35.1607C73.3486 37.2714 74.3831 38.3748 76.173 39.0391C79.5954 40.3092 83.1132 40.3863 86.6379 39.6578C87.5498 39.4693 88.4351 38.8969 89.1945 38.319C89.665 37.961 90.08 37.2923 90.171 36.7086C91.3763 28.9802 92.5087 21.2405 93.6905 13.5083C93.8633 12.378 93.5486 11.4542 92.701 10.7872C91.9774 10.2178 91.1638 9.70856 90.3116 9.37087C89.1973 8.92938 88.0059 8.683 86.6442 8.29464C87.1041 7.08176 87.5326 5.95168 87.9466 4.81844C87.9321 4.81528 88.0195 4.82245 87.8884 4.87783C87.7789 5.02562 87.8005 5.11803 87.8852 5.27901C89.7981 6.2747 91.6562 7.18573 93.4941 8.13577C94.4091 8.60875 95.0435 8.47817 95.4499 7.39305C95.6628 7.08684 95.8069 6.83538 95.951 6.58391C96.4955 12.7282 97.0399 18.8726 97.6172 25.2422C97.2391 32.4671 96.8425 39.4677 96.4005 46.4654C96.3387 47.4434 96.5626 47.8376 97.6224 47.8957C105.921 48.3507 114.217 48.8499 122.511 49.3761C123.484 49.4379 123.786 49.1311 123.835 48.1805C124.056 43.8652 124.317 39.5515 124.622 35.2413C124.693 34.2368 124.197 34.0473 123.404 34.0432C124.783 26.8196 126.159 19.5955 127.542 12.3728C127.772 11.1763 128.032 9.98578 128.317 8.82444C128.364 9.22332 128.38 9.59025 128.38 9.95718C128.382 21.2169 128.394 32.4766 128.361 43.7362C128.358 44.7867 128.627 45.1586 129.728 45.1422C133.763 45.0822 137.8 45.0943 141.836 45.1363C142.783 45.1462 143.137 44.8847 143.114 43.8902C143.054 41.2398 143.142 38.5859 143.07 35.9361C143.042 34.9314 143.336 34.2608 144.148 33.6781C145.282 32.8647 145.404 32.8563 145.921 34.1938C147.181 37.4571 148.464 40.7122 149.666 43.997C149.988 44.8759 150.441 45.1467 151.355 45.1391C156.288 45.0984 161.221 45.1242 166.154 45.1271C163.254 48.8487 160.353 52.5702 157.395 56.2492C157.449 54.8358 157.559 53.4649 157.68 51.9645C150.313 51.3723 143.021 50.7861 135.616 50.1908C134.847 59.7872 134.087 69.2656 133.322 78.8157C141.072 79.4366 148.683 80.0464 156.358 80.6614C156.584 77.8148 156.798 75.1152 157.016 72.3712C153.188 72.0587 149.508 71.7582 145.755 71.4517C145.805 70.7088 145.847 70.0721 145.898 69.3121C149.301 69.5755 152.6 69.8309 155.925 70.0883C156.144 67.6207 156.35 65.3111 156.555 63.0015C157.89 61.4715 159.225 59.9415 160.636 58.4906C159.407 61.9788 160.359 64.9126 162.996 67.1453C164.829 68.6976 167.022 69.8396 169.115 71.0631C170.158 71.6735 171.354 72.0199 172.442 72.5617C172.796 72.7373 173.029 73.1541 173.317 73.4606C173.232 73.5986 173.146 73.7366 173.061 73.8746C172.424 73.7073 171.736 73.6419 171.161 73.3521C169.856 72.6944 168.618 71.9051 167.327 71.2188C167.023 71.0574 166.541 70.9335 166.266 71.0617C163.442 72.3807 160.644 73.7552 157.825 75.1208C158.999 76.715 161.43 78.6141 163.596 79.6204C168.287 81.8 173.191 82.5595 178.318 81.7875C178.073 81.9832 177.851 82.2176 177.581 82.3689C170.937 86.1009 164.266 89.7882 157.645 93.5608C152.681 96.3891 147.93 95.5471 143.283 92.8727C142.497 92.42 141.989 92.3467 141.414 93.0039C140.343 94.2297 139.056 94.3767 137.469 94.204C133.18 93.7375 128.868 93.4849 124.497 93.1421C124.474 92.6534 124.455 92.2611 124.418 91.4985C123.811 92.4678 123.382 93.2005 122.901 93.8977C122.71 94.1748 122.409 94.5723 122.152 94.577C119.475 94.6268 116.798 94.6077 114.029 94.6077C114.029 92.5583 114.029 90.6544 114.029 88.7504C113.941 88.7365 113.852 88.7226 113.764 88.7087C113.424 90.2529 112.992 91.7843 112.774 93.3455C112.611 94.5116 112.146 94.8848 110.975 94.8494C109.185 94.7954 107.386 94.8972 105.598 95.0317C104.687 95.1002 104.059 94.8739 103.529 94.1093C102.998 93.3445 102.338 92.6701 101.551 91.74C101.551 92.963 101.551 93.9369 101.551 95.0826C99.0984 95.2832 96.7628 95.4998 94.4223 95.628C94.1772 95.6415 93.8158 95.1764 93.6581 94.8589C92.8796 93.2915 92.1515 91.6989 91.3609 90.0203C88.4559 93.6625 84.5908 94.0527 80.3994 93.6615C75.9545 93.2467 73.7131 89.6449 70.7827 87.1295C70.6269 87.2253 70.5609 87.2484 70.5619 87.2678C70.6977 89.753 68.7419 90.9671 67.3354 92.4869C66.8616 92.9988 66.1852 93.497 65.5255 93.6331C62.3456 94.2892 59.1881 94.7516 56.2844 92.5367C54.9491 91.5181 53.3852 90.7996 51.6479 89.7829C52.0524 91.2613 52.3702 92.4226 52.7166 93.6887C50.4335 94.5627 48.1118 95.0509 45.7582 94.7273C43.6822 94.442 41.552 94.0278 39.6312 93.2258C30.3085 89.3334 21.0483 85.2909 11.765 81.3038C11.3538 81.1272 10.9333 80.9723 10.5746 80.6964C12.3241 80.8064 14.0103 81.1064 15.7093 81.2317C19.2753 81.4945 22.7342 80.9621 26.1412 79.6468C25.2429 76.6225 24.3731 73.6942 23.5003 70.7557C20.2957 71.955 19.3386 72.1073 17.0639 71.8164C14.2015 71.4504 12.3141 69.6121 12.3911 67.2651C12.4931 64.1578 15.4008 61.6447 18.4488 62.217C19.9668 62.5021 21.411 63.181 23.0207 63.7265C24.738 61.4952 26.5861 59.1219 28.3875 56.7135C28.5879 56.4455 28.5218 55.9779 28.5793 55.6028C29.9644 56.7316 31.3494 57.8604 32.7674 59.1274C32.174 59.6905 31.5291 60.0909 30.9281 60.549C30.5512 60.8363 30.2254 61.1966 29.903 61.5483C29.2129 62.3014 28.678 63.3501 27.8288 63.7694C26.4278 64.4611 26.0869 64.6585 26.3446 66.2606C26.6224 67.9876 26.9012 69.7187 27.29 71.4228C28.3874 76.2321 31.7009 78.8785 36.2106 80.1664C39.0833 80.9869 41.9521 80.0224 44.8127 79.7356C46.2661 79.5899 47.3088 78.6856 48.271 77.6207C49.1633 76.6333 50.2353 75.8104 51.1608 74.8502C51.616 74.3779 52.0912 73.8057 52.2569 73.1969C52.6693 71.6814 52.9613 70.1269 53.1997 68.5724C53.3461 67.6173 53.4281 66.6196 53.322 65.6652C53.1078 63.7396 52.7551 61.829 52.4366 59.916C52.3705 59.5189 52.2708 59.1009 52.075 58.756C49.9095 54.9434 46.8632 52.3133 42.3647 51.771C40.7918 51.5814 39.1974 51.5578 37.6114 51.4947C36.3177 51.4432 35.2591 52.2881 35.2062 53.5725C35.1494 54.9503 34.862 56.1392 33.699 57.0061C33.5345 57.1287 33.505 57.4327 33.4131 57.6527ZM55.8199 61.3202C55.7869 63.4713 55.5276 65.6479 55.7657 67.7685C56.3505 72.9762 58.8399 76.9426 63.9987 78.7186C68.693 80.3346 73.4591 80.3269 78.1264 78.6025C81.7975 77.2463 84.3072 74.6749 85.1144 70.7515C86.9137 62.0047 82.0529 49.4216 67.9262 50.759C61.6957 51.3489 57.0958 55.245 55.8199 61.3202ZM87.496 70.0011C87.6303 74.187 87.7647 78.373 87.903 82.683C91.698 82.3711 95.3362 82.0722 99.0635 81.7659C99.0635 80.0505 99.0635 78.4194 99.0635 76.5535C100.333 78.0819 101.476 79.3984 102.545 80.7721C103.039 81.4064 103.552 81.6818 104.383 81.6427C107.6 81.4916 110.82 81.4222 114.039 81.3165C114.469 81.3023 114.899 81.2547 115.456 81.213C115.17 80.7378 114.972 80.3926 114.758 80.0577C112.082 75.8703 109.434 71.6646 106.702 67.514C106.131 66.647 106.217 66.0864 106.772 65.2817C109.315 61.5921 111.792 57.8566 114.29 54.1354C114.508 53.8102 114.702 53.4686 114.991 52.9984C110.807 53.1485 106.789 53.2781 102.775 53.4646C102.459 53.4793 102.094 53.8371 101.867 54.1263C100.545 55.8183 99.2576 57.5375 97.9583 59.2474C97.8571 59.2297 97.7559 59.212 97.6547 59.1942C97.6547 57.3509 97.6547 55.5076 97.6547 53.5432C93.9503 53.8636 90.4828 54.1634 86.9402 54.4698C87.1263 59.659 87.3076 64.7109 87.496 70.0011ZM117.863 63.859C117.863 69.5873 117.863 75.3156 117.863 81.0161C122.187 81.0161 126.323 81.0161 130.501 81.0161C130.501 72.8819 130.501 64.8265 130.501 56.7131C126.276 56.7131 122.107 56.7131 117.863 56.7131C117.863 59.0599 117.863 61.337 117.863 63.859ZM90.5772 47.6195C90.7778 47.4854 91.151 47.3541 91.1532 47.2168C91.1897 45.0005 91.179 42.7834 91.179 40.5521C90.382 40.5521 89.674 40.5521 88.9073 40.5521C88.8643 41.3625 88.8248 42.1063 88.7887 42.7871C88.1018 42.724 87.5381 42.5891 86.9909 42.6385C85.7136 42.7539 84.9625 43.9022 85.0885 45.4253C85.1984 46.7538 86.1554 47.7357 87.3327 47.71C88.3384 47.6881 89.3438 47.6481 90.5772 47.6195ZM84.6629 45.4655C84.6631 45.3435 84.6647 45.2214 84.6634 45.0993C84.6383 42.7729 83.9892 42.2856 81.7613 42.9103C81.6423 42.9437 81.5029 42.9194 81.3752 42.9039C80.6155 42.8118 79.8565 42.7143 79.0775 42.6162C79.0775 44.4074 79.0775 45.9698 79.0775 47.5231C79.8842 47.5231 80.6036 47.5231 81.2928 47.5231C81.7176 46.6395 80.9691 45.5124 82.1404 44.5255C82.216 45.726 82.2725 46.6224 82.3296 47.5279C83.1207 47.5279 83.8416 47.5279 84.6622 47.5279C84.6622 46.8776 84.6622 46.2775 84.6629 45.4655ZM76.8529 47.5706C77.279 47.5706 77.7051 47.5706 78.189 47.5706C78.189 46.7714 78.1887 46.1635 78.189 45.5557C78.1903 43.1028 76.5811 41.8857 74.2719 42.6928C73.909 42.8196 73.6771 43.4579 73.4999 43.9053C73.4404 44.0556 73.739 44.3479 73.8684 44.5661C72.7544 45.0754 72.311 45.7155 72.6443 46.6089C73.0591 47.7206 74.0028 47.7252 74.9888 47.6181C75.5286 47.5594 76.0775 47.5834 76.8529 47.5706Z" fill="#1A2F35"/>
<path d="M66.6784 11.2084C66.6427 11.6654 66.4754 12.0455 66.4965 12.4148C66.9688 20.6727 67.4655 28.9291 67.9488 37.1864C68.1228 40.1584 68.2547 43.133 68.4476 46.1036C68.5054 46.993 68.2203 47.3212 67.3003 47.3615C63.5548 47.5258 59.8108 47.7409 56.0699 47.991C55.0946 48.0562 54.7756 47.7033 54.7378 46.7617C54.6216 43.8688 54.4501 40.9778 54.261 38.0887C54.238 37.7378 53.976 37.4026 53.8248 37.0601C53.5007 37.3019 53.046 37.4735 52.8728 37.7963C51.1607 40.9878 49.498 44.2058 47.8155 47.4132C47.0056 48.9571 45.396 49.0242 44.4079 47.5566C42.4514 44.6505 40.5138 41.7315 38.5303 38.844C38.2675 38.4615 37.7822 38.2322 37.3999 37.932C37.264 38.4343 36.9965 38.9413 37.014 39.4382C37.1117 42.2094 37.2462 44.9804 37.4388 47.7465C37.5073 48.7289 37.154 49.0178 36.2116 49.0574C32.4249 49.2166 28.6411 49.444 24.7407 49.6518C24.361 49.2812 23.8938 48.9204 23.8642 48.5267C23.602 45.03 23.4051 41.5282 23.2121 38.0267C22.7881 30.3309 22.3437 22.636 21.9779 14.9374C21.8285 11.7928 21.4759 12.1652 24.6587 12.0306C27.2236 11.9221 29.7875 11.7652 32.3467 11.5635C33.4251 11.4784 34.1231 11.7875 34.7808 12.713C37.7802 16.9341 40.868 21.0923 43.927 25.271C44.8832 26.5771 45.1266 26.5694 45.9327 25.1691C48.556 20.6117 51.1866 16.0584 53.7714 11.4793C54.2246 10.6763 54.7403 10.3412 55.6864 10.3127C58.7406 10.2206 61.7945 10.054 64.8416 9.82463C65.9133 9.74395 66.5464 9.98633 66.6784 11.2084Z" fill="#FAF2E1"/>
<path d="M166.201 45.064C161.221 45.1242 156.288 45.0984 151.355 45.1391C150.441 45.1467 149.988 44.8759 149.666 43.997C148.464 40.7122 147.181 37.4571 145.921 34.1938C145.404 32.8563 145.282 32.8647 144.148 33.6781C143.336 34.2608 143.042 34.9314 143.07 35.9361C143.142 38.5859 143.054 41.2398 143.114 43.8902C143.137 44.8847 142.783 45.1462 141.836 45.1363C137.8 45.0943 133.763 45.0822 129.728 45.1422C128.627 45.1586 128.358 44.7867 128.361 43.7362C128.394 32.4766 128.382 21.2169 128.38 9.95718C128.38 9.59025 128.364 9.22332 128.349 8.73862C128.343 7.84909 128.723 7.59325 129.491 7.59864C133.649 7.62782 137.807 7.62669 141.965 7.60098C142.808 7.59577 143.111 7.89571 143.103 8.74672C143.07 12.2137 143.083 15.6812 143.096 19.1484C143.098 19.7213 142.889 20.58 143.799 20.5235C144.231 20.4967 144.828 19.9204 145.004 19.4602C146.364 15.9059 147.661 12.327 148.921 8.73613C149.205 7.92732 149.57 7.58119 150.478 7.59013C155.206 7.63667 159.935 7.60636 164.664 7.61538C165.986 7.6179 166.122 7.85653 165.479 9.03798C163.505 12.6618 161.511 16.2749 159.541 19.9005C158.908 21.0653 158.397 22.3033 157.692 23.4202C157.125 24.3167 157.18 25.0301 157.636 25.9598C160.504 31.8133 163.315 37.6944 166.111 43.5829C166.302 43.9863 166.209 44.5251 166.201 45.064Z" fill="#FBF3E2"/>
<path d="M123.309 34.0605C124.197 34.0473 124.693 34.2368 124.622 35.2413C124.317 39.5515 124.056 43.8652 123.835 48.1805C123.786 49.1311 123.484 49.4379 122.511 49.3761C114.217 48.8499 105.921 48.3507 97.6224 47.8957C96.5626 47.8376 96.3387 47.4434 96.4005 46.4654C96.8425 39.4677 97.239 32.4671 97.65 25.3439C97.8046 22.5909 97.9494 19.9608 98.1164 17.332C98.3035 14.3878 98.4846 11.4425 98.7494 8.5049C98.7759 8.2106 99.3755 7.72048 99.6876 7.73665C104.286 7.97494 108.88 8.29503 113.477 8.56528C114.31 8.61425 114.49 9.03088 114.444 9.76207C114.07 15.7042 113.714 21.6473 113.348 27.5899C113.251 29.1771 113.16 30.7652 113.03 32.3498C112.95 33.3222 113.518 33.5246 114.304 33.5679C117.274 33.7316 120.244 33.9069 123.309 34.0605Z" fill="#FAF2E1"/>
<path d="M156.466 62.9477C156.35 65.3111 156.144 67.6207 155.925 70.0883C152.6 69.8309 149.301 69.5755 145.898 69.3121C145.847 70.0721 145.805 70.7088 145.755 71.4517C149.508 71.7582 153.188 72.0587 157.016 72.3712C156.798 75.1152 156.584 77.8148 156.358 80.6614C148.683 80.0464 141.072 79.4366 133.322 78.8157C134.087 69.2656 134.847 59.7872 135.616 50.1908C143.021 50.7861 150.313 51.3723 157.68 51.9645C157.559 53.4649 157.449 54.8358 157.347 56.3128C157.245 57.3967 157.133 58.3746 156.911 59.4442C153.165 59.3718 149.531 59.2078 145.86 59.0422C145.86 60.1398 145.86 61.0517 145.86 62.0091C148.844 62.2261 151.756 62.4379 154.667 62.6496C155.237 62.7311 155.807 62.8125 156.466 62.9477Z" fill="#F9F2E1"/>
<path d="M178.325 81.8077C173.191 82.5595 168.287 81.8 163.596 79.6204C161.43 78.6141 158.999 76.715 157.825 75.1208C160.644 73.7552 163.442 72.3807 166.266 71.0617C166.541 70.9335 167.023 71.0574 167.327 71.2188C168.618 71.9051 169.856 72.6944 171.161 73.3521C171.736 73.6419 172.424 73.7073 173.061 73.8746C173.146 73.7366 173.232 73.5986 173.317 73.4606C173.029 73.1541 172.796 72.7373 172.442 72.5617C171.354 72.0199 170.158 71.6735 169.115 71.0631C167.022 69.8396 164.829 68.6976 162.996 67.1453C160.359 64.9126 159.407 61.9789 160.716 58.4744C164.045 53.5519 168.953 52.6932 174.286 53.053C177.145 53.2459 179.932 53.9033 182.411 55.412C183.563 56.113 184.563 57.0637 185.786 58.0219C183.132 60.1024 180.748 61.9718 178.245 63.8966C177.985 63.8098 177.828 63.6802 177.705 63.5235C176.583 62.0882 175.119 61.1696 173.335 60.9045C172.793 60.824 172.181 61.2152 171.602 61.3903C171.911 61.8861 172.104 62.5951 172.551 62.839C174.071 63.6695 175.681 64.3359 177.257 65.0649C178.495 65.7581 179.776 66.3839 180.961 67.1582C183.521 68.8317 185.421 71.0146 185.443 74.2563C185.449 75.2501 185.153 76.3795 184.629 77.2169C183.314 79.3166 181.281 80.5814 178.812 81.4749C178.542 81.6589 178.418 81.7525 178.293 81.8461C178.293 81.8461 178.333 81.8279 178.325 81.8077Z" fill="#FAF2E1"/>
<path d="M28.5228 55.547C28.5218 55.9779 28.5879 56.4455 28.3875 56.7135C26.5861 59.1219 24.738 61.4952 23.0207 63.7265C21.411 63.181 19.9668 62.5021 18.4488 62.217C15.4008 61.6447 12.4931 64.1578 12.3911 67.2651C12.3141 69.6121 14.2015 71.4504 17.0639 71.8164C19.3386 72.1073 20.2957 71.955 23.5003 70.7557C24.3731 73.6942 25.2429 76.6225 26.1412 79.6468C22.7342 80.9621 19.2753 81.4945 15.7093 81.2317C14.0103 81.1064 12.324 80.8064 10.5302 80.6218C9.03057 80.051 7.57895 79.5433 6.24513 78.8185C2.16361 76.6006 0.403512 72.9903 0.254697 68.4626C-0.00264011 60.6332 4.74448 54.2823 12.3763 52.604C17.3342 51.5138 22.1738 52.4366 26.8487 54.2392C27.4581 54.4742 27.9304 55.0651 28.5228 55.547Z" fill="#FAF2E1"/>
<path d="M87.9611 4.82157C87.5326 5.95166 87.1041 7.08176 86.6442 8.29464C88.0059 8.683 89.1973 8.92938 90.3116 9.37087C91.1638 9.70856 91.9774 10.2178 92.701 10.7872C93.5486 11.4542 93.8633 12.378 93.6905 13.5083C92.5087 21.2405 91.3763 28.9802 90.171 36.7086C90.08 37.2923 89.665 37.961 89.1945 38.319C88.4351 38.8969 87.5498 39.4693 86.6379 39.6578C83.1132 40.3863 79.5954 40.3092 76.173 39.0391C74.3831 38.3748 73.3486 37.2714 73.2671 35.1607C73.1558 32.2766 72.699 29.4058 72.3719 26.4345C71.9814 22.1988 71.6366 18.0553 71.2263 13.9183C71.0038 11.6747 71.3573 10.8434 73.3719 9.76669C75.9756 8.37518 78.8486 8.21259 81.6993 8.20046C83.0627 8.19466 83.6092 7.80343 83.8073 6.44628C84.1053 4.4049 84.6269 2.3962 85.0805 0.244873C86.7768 1.12662 88.293 1.91477 89.8448 2.79617C89.8119 2.93696 89.7435 2.9845 89.5902 3.01785C88.2088 2.36632 86.9123 1.72896 85.4935 1.0315C84.4985 5.80778 83.5329 10.4427 82.5511 15.1552C80.136 15.0081 77.7923 14.966 75.6765 13.7409C78.0088 13.2801 80.311 12.9042 82.7055 12.5132C82.5306 12.2599 82.5008 12.1622 82.4457 12.1447C80.059 11.3898 77.8869 12.2447 75.7258 13.0899C75.6247 13.1294 75.6854 13.5829 75.5782 13.8206C75.0821 13.5648 74.6785 13.3321 73.9419 12.9074C75.0103 12.457 75.7412 11.9834 76.5295 11.8502C78.3186 11.548 80.137 11.4214 81.941 11.2034C82.2772 11.1628 82.602 11.0286 82.932 10.9376C82.9053 10.7819 82.8785 10.6262 82.8518 10.4705C82.2203 10.4705 81.5888 10.4705 80.9673 10.4167C80.9606 10.292 80.9475 10.2203 81.0478 10.1367C83.0629 10.0973 83.0629 10.0973 83.0965 9.13994C80.631 8.57694 75.4708 9.38101 73.369 10.6496C72.2247 11.3402 71.6625 12.2439 71.8064 13.6783C72.5316 20.9025 73.1961 28.1329 73.8527 35.3637C73.9565 36.506 74.4882 37.3225 75.4894 37.7527C79.5633 39.5031 83.7013 39.6126 87.8509 38.0362C88.7641 37.6893 89.3539 37.014 89.5077 35.9502C90.5571 28.6879 91.6132 21.4262 92.7389 14.1755C92.9556 12.7798 92.4775 11.7808 91.3707 11.1953C89.9186 10.4273 88.3453 9.88866 86.8242 9.25135C86.7118 9.35161 86.5995 9.45186 86.4872 9.55212C86.5875 9.91843 86.6879 10.2847 86.7816 10.7039C86.763 10.828 86.7656 10.8987 86.6788 10.9639C85.8844 11.6138 86.5388 11.6423 86.9581 11.8C88.0851 12.224 89.208 12.659 90.3326 13.0896C90.3201 13.2573 90.3076 13.425 90.2951 13.5927C89.8249 13.7379 89.3547 13.883 88.9619 13.9703C89.084 13.7307 89.2254 13.4914 89.1573 13.3768C88.7849 12.7505 86.6821 12.4296 85.621 13.0366C86.8765 13.4062 87.8974 13.7068 88.964 14.0917C87.7069 14.51 86.4042 14.8439 84.8916 15.2316C85.6757 11.4292 86.3846 7.99142 87.1115 4.46616C87.4557 4.61014 87.7084 4.71585 87.9611 4.82157Z" fill="#EBE5D6"/>
<path d="M33.4312 57.7327C33.505 57.4327 33.5345 57.1287 33.699 57.0061C34.862 56.1392 35.1494 54.9503 35.2062 53.5725C35.2591 52.2881 36.3177 51.4432 37.6114 51.4947C39.1974 51.5578 40.7918 51.5814 42.3647 51.771C46.8632 52.3133 49.9095 54.9434 52.075 58.756C52.2708 59.1009 52.3705 59.5189 52.4366 59.916C52.7551 61.829 53.1078 63.7396 53.322 65.6652C53.4281 66.6196 53.3461 67.6173 53.1997 68.5724C52.9613 70.1269 52.6693 71.6814 52.2569 73.1969C52.0912 73.8057 51.616 74.3779 51.1608 74.8502C50.2353 75.8104 49.1633 76.6333 48.271 77.6207C47.3088 78.6856 46.2661 79.5899 44.8127 79.7356C41.9521 80.0224 39.0833 80.9869 36.2106 80.1664C31.7009 78.8785 28.3874 76.2321 27.29 71.4228C26.9012 69.7187 26.6224 67.9876 26.3446 66.2606C26.0869 64.6585 26.4278 64.4611 27.8288 63.7694C28.678 63.3501 29.2129 62.3014 29.903 61.5483C30.2254 61.1966 30.5512 60.8363 30.9281 60.549C31.5291 60.0909 32.174 59.6905 32.838 59.1827C33.0668 58.6707 33.2581 58.2417 33.4312 57.7327ZM52.06 67.7535C52.8698 64.935 51.5163 62.4197 50.6119 59.9957C48.7134 54.908 43.3081 51.8447 37.928 52.265C37.0429 52.3342 36.6176 52.5829 36.6724 53.5899C36.7505 55.0247 36.3103 56.3019 35.1455 57.2891C34.7607 57.6152 34.4399 58.1321 34.3084 58.6207C33.9206 60.0612 33.1801 61.0988 31.7121 61.6046C31.3291 61.7365 30.9288 62.156 30.7702 62.5401C30.245 63.8117 29.362 64.6775 28.0392 64.9157C27.1672 65.0727 26.9055 65.5021 27.06 66.2397C27.4246 67.9811 27.5863 69.8288 28.3023 71.4208C30.3427 75.9575 33.7033 78.976 38.9139 79.1713C40.5912 79.2342 42.2875 78.7372 43.9779 78.5181C45.4039 78.3332 46.437 77.5715 47.3066 76.4623C48.0559 75.5065 48.9766 74.6814 49.6906 73.7028C50.3204 72.8395 50.8682 71.8841 51.2694 70.8951C51.6463 69.9662 51.784 68.9401 52.06 67.7535Z" fill="#F1EADA"/>
<path d="M154.704 62.5712C151.756 62.4379 148.844 62.2261 145.86 62.0091C145.86 61.0517 145.86 60.1398 145.86 59.0422C149.531 59.2078 153.165 59.3718 156.897 59.546C156.244 60.535 155.493 61.5139 154.704 62.5712Z" fill="#1E3338"/>
<path d="M177.301 64.9893C175.681 64.3359 174.071 63.6695 172.551 62.839C172.104 62.5951 171.911 61.8861 171.602 61.3903C172.181 61.2152 172.793 60.824 173.335 60.9045C175.119 61.1696 176.583 62.0882 177.705 63.5235C177.828 63.6802 177.985 63.8098 178.204 63.9722C177.969 64.2995 177.657 64.6066 177.301 64.9893Z" fill="#20353A"/>
<path d="M89.6751 3.03207C89.7435 2.98454 89.8118 2.937 89.9181 2.83974C91.6765 3.65419 93.4133 4.48837 95.1045 5.40681C95.4605 5.60016 95.6488 6.10279 95.9327 6.52342C95.8069 6.83539 95.6627 7.08685 95.4213 7.34307C95.2842 7.28112 95.2338 7.2236 95.207 7.09115C95.6053 6.29396 95.3134 5.90793 94.6434 5.58014C92.9719 4.76236 91.3293 3.88532 89.6751 3.03207Z" fill="#DCD4C8"/>
<path d="M178.382 81.8478C178.418 81.7525 178.542 81.6589 178.747 81.5252C178.709 81.6067 178.589 81.7281 178.382 81.8478Z" fill="#1A2F35"/>
<path d="M55.8498 61.2204C57.0957 55.245 61.6957 51.3489 67.9262 50.759C82.0529 49.4216 86.9137 62.0047 85.1144 70.7515C84.3072 74.6749 81.7975 77.2463 78.1264 78.6025C73.4591 80.3269 68.693 80.3346 63.9987 78.7186C58.8399 76.9426 56.3505 72.9762 55.7657 67.7685C55.5276 65.6479 55.7869 63.4713 55.8498 61.2204ZM69.1952 70.0049C70.5547 70.8909 71.5623 70.8095 72.5561 69.7331C74.2292 67.921 74.1221 63.1556 72.3692 61.413C70.9821 60.0339 68.5063 60.2299 67.9757 61.8868C67.0827 64.6747 67.1371 67.4259 69.1952 70.0049Z" fill="#FAF2E1"/>
<path d="M87.4924 69.882C87.3075 64.7109 87.1263 59.659 86.9402 54.4698C90.4828 54.1634 93.9503 53.8636 97.6547 53.5432C97.6547 55.5076 97.6547 57.3509 97.6547 59.1942C97.7559 59.212 97.8571 59.2297 97.9583 59.2474C99.2576 57.5375 100.545 55.8183 101.867 54.1263C102.094 53.8371 102.459 53.4793 102.775 53.4646C106.789 53.2781 110.807 53.1485 114.991 52.9984C114.702 53.4686 114.508 53.8102 114.29 54.1354C111.792 57.8566 109.315 61.5921 106.772 65.2817C106.217 66.0864 106.131 66.647 106.702 67.514C109.434 71.6646 112.082 75.8703 114.758 80.0577C114.972 80.3926 115.17 80.7378 115.456 81.213C114.899 81.2547 114.469 81.3023 114.039 81.3165C110.82 81.4222 107.6 81.4916 104.383 81.6427C103.552 81.6818 103.039 81.4064 102.545 80.7721C101.476 79.3984 100.333 78.0819 99.0635 76.5535C99.0635 78.4194 99.0635 80.0505 99.0635 81.7659C95.3362 82.0722 91.698 82.3711 87.903 82.683C87.7647 78.373 87.6303 74.187 87.4924 69.882Z" fill="#FAF2E1"/>
<path d="M117.863 63.7366C117.863 61.3371 117.863 59.0599 117.863 56.7131C122.107 56.7131 126.276 56.7131 130.501 56.7131C130.501 64.8265 130.501 72.8819 130.501 81.0161C126.323 81.0161 122.187 81.0161 117.863 81.0161C117.863 75.3156 117.863 69.5873 117.863 63.7366Z" fill="#F9F1E1"/>
<path d="M89.5902 3.01785C91.3293 3.88528 92.9719 4.76236 94.6434 5.58014C95.3134 5.90793 95.6052 6.29394 95.1503 7.15439C94.6191 7.8955 94.1246 7.91031 93.4785 7.57726C91.7548 6.6886 90.0007 5.85881 88.1972 4.96198C88.097 4.88637 88.0582 4.85441 88.0194 4.82244C88.0194 4.82244 87.9321 4.81528 87.9466 4.81844C87.7084 4.71588 87.4557 4.61014 87.1115 4.46616C86.3846 7.99142 85.6757 11.4292 84.8916 15.2316C86.4042 14.8439 87.7069 14.51 88.9557 14.0973C88.9018 14.0185 88.8844 14.0282 88.8844 14.0282C89.3546 13.883 89.8249 13.7379 90.2951 13.5927C90.3076 13.425 90.3201 13.2573 90.3326 13.0896C89.208 12.659 88.0851 12.224 86.9581 11.8C86.5388 11.6423 85.8843 11.6138 86.7665 11.0074C88.1128 11.5252 89.326 11.8905 90.4042 12.4963C91.3032 13.0015 91.269 13.7766 90.3614 14.2836C89.5692 14.7262 88.6476 14.9367 87.7218 15.2592C87.5921 15.3745 87.5237 15.4804 87.4554 15.5862C87.5564 15.5692 87.6575 15.5522 87.8611 15.5155C88.9141 15.198 89.9412 15.0396 90.7965 14.5687C92.0097 13.9008 92.05 12.8956 90.8375 12.2273C89.58 11.5342 88.1454 11.163 86.7882 10.6511C86.6878 10.2848 86.5875 9.91843 86.4872 9.55212C86.5995 9.45186 86.7118 9.35161 86.8242 9.25135C88.3453 9.88866 89.9186 10.4273 91.3707 11.1953C92.4775 11.7808 92.9556 12.7798 92.7389 14.1755C91.6132 21.4262 90.5571 28.6879 89.5077 35.9502C89.3539 37.014 88.7641 37.6893 87.8509 38.0362C83.7013 39.6126 79.5633 39.5031 75.4894 37.7527C74.4882 37.3225 73.9565 36.506 73.8527 35.3637C73.1961 28.1329 72.5316 20.9025 71.8064 13.6783C71.6625 12.2439 72.2247 11.3402 73.369 10.6496C75.4708 9.38101 80.631 8.57694 83.0965 9.13994C83.0629 10.0973 83.0629 10.0973 80.9474 10.1162C80.1633 10.1713 79.5893 10.2355 78.9316 10.314C78.6339 10.4167 78.4199 10.5052 78.2059 10.5937C78.2664 10.6878 78.327 10.7819 78.3875 10.876C78.5956 10.6816 78.8038 10.4871 79.091 10.3549C79.7658 10.4349 80.3616 10.4527 80.9573 10.4705C81.5888 10.4705 82.2203 10.4705 82.8518 10.4705C82.8785 10.6262 82.9053 10.7819 82.932 10.9376C82.602 11.0286 82.2772 11.1628 81.941 11.2034C80.137 11.4214 78.3186 11.548 76.5295 11.8502C75.7412 11.9834 75.0103 12.457 73.9419 12.9074C74.6785 13.3321 75.082 13.5649 75.574 13.8135C75.6623 13.8295 75.6463 13.8257 75.6463 13.8257C77.7922 14.9661 80.136 15.0081 82.5511 15.1552C83.5329 10.4427 84.4985 5.80778 85.4935 1.0315C86.9123 1.72896 88.2088 2.36632 89.5902 3.01785ZM78.2472 15.8045L78.325 15.7961C78.325 15.7961 78.2529 15.7233 78.2128 15.5866C78.0671 15.4922 77.9214 15.3978 77.7756 15.3034C77.7397 15.3638 77.7037 15.4241 77.6677 15.4845C77.8508 15.5762 78.034 15.668 78.2472 15.8045ZM76.1136 11.2961C76.1921 11.2276 76.2706 11.1591 76.3491 11.0906C76.2419 11.0066 76.1347 10.9226 75.845 10.847C75.0452 11.2342 74.1834 11.5355 73.4742 12.0481C73.163 12.273 72.9457 12.9968 73.0638 13.3762C73.3772 14.3833 75.7832 15.4723 76.9879 15.2055C76.5252 15.0299 76.1434 14.9219 75.796 14.7459C74.9195 14.3021 73.477 14.0845 73.6887 12.9352C73.8102 12.275 75.1729 11.8436 76.1136 11.2961ZM88.6055 34.0679C89.5346 27.8288 90.4637 21.5897 91.3665 15.5277C89.1049 16.0868 86.8466 16.645 84.5082 17.223C84.4787 17.3407 84.4113 17.5743 84.3621 17.8116C83.3054 22.9144 82.2317 28.0138 81.2139 33.1244C81.037 34.0123 80.6532 34.2929 79.7962 34.1463C78.8765 33.9889 78.7365 33.5054 78.9239 32.6615C79.5062 30.0388 80.0231 27.4017 80.5639 24.7698C81.0915 22.2019 81.6171 19.6336 82.1526 17.0214C78.9283 16.8395 75.8963 16.4374 73.0635 14.7463C73.7063 21.4075 74.4064 27.8915 74.9108 34.3907C75.0496 36.1791 75.9042 36.8921 77.4151 37.3042C80.1371 38.0465 82.8736 38.1838 85.6322 37.5717C88.0755 37.0296 88.2945 36.7669 88.6055 34.0679ZM85.4109 4.90262C85.3291 5.37248 85.2472 5.84234 85.1598 6.34426C86.3427 5.96885 86.6491 4.67725 85.8038 3.35974C85.6745 3.88575 85.5726 4.30053 85.4109 4.90262ZM84.7681 8.15972C84.6143 8.89316 84.4605 9.6266 84.2544 10.6092C85.7715 9.80469 85.3382 8.5791 85.4319 7.48353C85.2278 7.63919 85.0236 7.79484 84.7681 8.15972ZM83.3966 18.7992C83.3328 18.6109 83.269 18.4226 83.2052 18.2343C83 18.3905 82.6766 18.5086 82.6116 18.7101C82.4129 19.3263 82.3136 19.9746 82.161 20.6775C83.4006 20.5395 83.1352 19.6153 83.3966 18.7992ZM81.919 25.9907C81.9658 25.7219 82.0125 25.4531 82.0911 25.0011C80.673 25.4994 81.0481 26.5959 80.85 27.4322C80.9789 27.4942 81.1079 27.5562 81.2368 27.6182C81.4562 27.1389 81.6755 26.6596 81.919 25.9907ZM81.6755 22.9262C81.6279 23.2751 81.5803 23.6241 81.5189 24.0732C82.8153 23.7066 82.5342 22.7203 82.6958 21.9458C82.5826 21.8757 82.4693 21.8055 82.356 21.7354C82.1411 22.0692 81.9262 22.403 81.6755 22.9262ZM81.0024 28.706C80.66 29.319 80.3176 29.932 79.9752 30.5451C80.1135 30.6134 80.2518 30.6818 80.3901 30.7502C81.3699 30.3969 81.1994 29.5222 81.0024 28.706ZM83.746 13.0272C83.7535 13.2177 83.761 13.4081 83.7685 13.5985C84.0166 13.4819 84.4095 13.4239 84.4848 13.2374C84.689 12.7319 84.7584 12.1718 84.8812 11.6334C84.7343 11.5734 84.5875 11.5134 84.4407 11.4534C84.2261 11.9134 84.0115 12.3734 83.746 13.0272ZM93.3189 6.66736C93.7723 6.83384 94.2872 7.3954 94.6475 6.39973C93.9874 6.07237 93.3596 5.76105 92.7318 5.44973C92.652 5.52215 92.5722 5.59456 92.4925 5.66697C92.7083 5.97245 92.9241 6.27792 93.3189 6.66736ZM91.4151 5.09852C90.9154 4.71352 90.4158 4.32852 89.7489 3.81466C89.9555 5.15221 90.7674 5.72812 91.4151 5.09852ZM88.0749 3.114C87.6676 2.92814 87.2604 2.74229 86.8532 2.55643C86.7679 2.68932 86.6827 2.8222 86.5974 2.95509C87.1872 3.40241 87.777 3.84973 88.3668 4.29705C88.4665 4.21671 88.5662 4.13636 88.6659 4.05602C88.5232 3.7739 88.3805 3.49179 88.0749 3.114ZM82.6612 16.1367C83.1138 16.0571 83.5664 15.9775 84.019 15.8979C83.9924 15.7984 83.9658 15.6988 83.9393 15.5993C83.4636 15.7643 82.9879 15.9294 82.6612 16.1367ZM79.7515 16.1738C79.6709 15.957 79.5903 15.7402 79.5097 15.5234C79.3865 15.5826 79.2633 15.6418 79.1401 15.701C79.2981 15.8494 79.4561 15.9979 79.7515 16.1738ZM85.5934 16.0973C85.8615 16.0112 86.1296 15.9251 86.3977 15.839C86.3388 15.7313 86.2799 15.6235 86.221 15.5157C86.0226 15.6671 85.8243 15.8186 85.5934 16.0973ZM77.163 11.0314C77.2234 10.9557 77.2838 10.8801 77.3441 10.8044C77.2841 10.7716 77.224 10.7388 77.164 10.706C77.1278 10.8096 77.0916 10.9131 77.163 11.0314ZM84.0522 14.8623C84.0951 14.8016 84.1379 14.7408 84.1807 14.6801C84.1173 14.7188 84.0539 14.7576 84.0522 14.8623Z" fill="#24393D"/>
<path d="M90.4633 47.6178C89.3439 47.6481 88.3384 47.6881 87.3327 47.71C86.1554 47.7357 85.1984 46.7538 85.0885 45.4253C84.9625 43.9022 85.7136 42.7539 86.9909 42.6385C87.5381 42.5891 88.1018 42.724 88.7887 42.7871C88.8248 42.1063 88.8643 41.3625 88.9073 40.5521C89.674 40.5521 90.382 40.5521 91.179 40.5521C91.179 42.7834 91.1897 45.0005 91.1532 47.2168C91.151 47.3541 90.7778 47.4854 90.4633 47.6178ZM88.7093 44.4834C88.1122 44.22 87.6238 44.3431 87.6004 45.0357C87.5918 45.2899 88.0458 45.5597 88.2889 45.8224C88.4657 45.4285 88.6426 45.0346 88.7093 44.4834Z" fill="#F5EEDE"/>
<path d="M84.6625 45.5715C84.6622 46.2775 84.6622 46.8776 84.6622 47.5279C83.8416 47.5279 83.1207 47.5279 82.3296 47.5279C82.2725 46.6224 82.216 45.726 82.1404 44.5255C80.9691 45.5124 81.7176 46.6395 81.2928 47.5231C80.6036 47.5231 79.8842 47.5231 79.0775 47.5231C79.0775 45.9698 79.0775 44.4074 79.0775 42.6162C79.8565 42.7143 80.6155 42.8118 81.3752 42.9039C81.5029 42.9194 81.6423 42.9437 81.7613 42.9103C83.9892 42.2856 84.6383 42.7729 84.6634 45.0993C84.6647 45.2214 84.6631 45.3434 84.6625 45.5715Z" fill="#F4EDDC"/>
<path d="M76.7376 47.5704C76.0774 47.5834 75.5286 47.5594 74.9888 47.6181C74.0028 47.7252 73.0591 47.7206 72.6443 46.6089C72.311 45.7155 72.7544 45.0754 73.8684 44.5661C73.739 44.3479 73.4404 44.0556 73.4999 43.9053C73.6771 43.4579 73.909 42.8196 74.2719 42.6928C76.5811 41.8857 78.1903 43.1028 78.189 45.5557C78.1887 46.1635 78.189 46.7714 78.189 47.5706C77.7051 47.5706 77.279 47.5706 76.7376 47.5704Z" fill="#F3ECDB"/>
<path d="M88.2587 5.00562C90.0007 5.8588 91.7548 6.6886 93.4785 7.57726C94.1246 7.91031 94.6191 7.89549 95.1163 7.23851C95.2338 7.22357 95.2842 7.28109 95.3526 7.39779C95.0434 8.47816 94.4091 8.60875 93.4941 8.13577C91.6562 7.18573 89.7981 6.27469 87.9655 5.26053C88.0747 5.11754 88.1667 5.06158 88.2587 5.00562Z" fill="#E6E1D2"/>
<path d="M88.1972 4.96198C88.1667 5.06158 88.0747 5.11758 87.9023 5.192C87.8004 5.11805 87.7789 5.02562 87.8884 4.87783C88.0582 4.85441 88.097 4.88637 88.1972 4.96198Z" fill="#EBE5D6"/>
<path d="M75.6666 13.8366C75.6854 13.5829 75.6247 13.1294 75.7258 13.0899C77.8869 12.2447 80.059 11.3898 82.4457 12.1447C82.5008 12.1622 82.5306 12.2599 82.7055 12.5132C80.311 12.9042 78.0088 13.2801 75.6765 13.7409C75.6464 13.8257 75.6624 13.8295 75.6666 13.8366Z" fill="#2D4144"/>
<path d="M87.7832 15.2498C88.6476 14.9368 89.5692 14.7262 90.3614 14.2836C91.269 13.7766 91.3032 13.0015 90.4042 12.4963C89.326 11.8905 88.1129 11.5252 86.8704 11.0123C86.7656 10.8988 86.763 10.828 86.7816 10.7039C88.1454 11.163 89.58 11.5342 90.8375 12.2273C92.05 12.8956 92.0097 13.9008 90.7965 14.5687C89.9412 15.0396 88.9141 15.198 87.8502 15.4427C87.7522 15.343 87.7677 15.2964 87.7832 15.2498Z" fill="#D6D3C5"/>
<path d="M88.91 14.0129C87.8974 13.7068 86.8765 13.4062 85.621 13.0366C86.6821 12.4296 88.7849 12.7505 89.1573 13.3768C89.2254 13.4914 89.084 13.7307 88.9619 13.9703C88.8844 14.0281 88.9018 14.0185 88.91 14.0129Z" fill="#304346"/>
<path d="M80.9673 10.4167C80.3616 10.4527 79.7658 10.4349 79.0669 10.3716C78.9637 10.3261 79.0154 10.2997 79.0154 10.2997C79.5893 10.2355 80.1633 10.1713 80.8377 10.1276C80.9475 10.2204 80.9606 10.292 80.9673 10.4167Z" fill="#B6B7AD"/>
<path d="M52.0434 67.8552C51.784 68.9401 51.6463 69.9662 51.2694 70.8951C50.8682 71.8841 50.3204 72.8395 49.6906 73.7028C48.9766 74.6814 48.0559 75.5065 47.3066 76.4623C46.437 77.5715 45.4039 78.3332 43.9779 78.5181C42.2875 78.7372 40.5912 79.2342 38.9139 79.1713C33.7033 78.976 30.3427 75.9575 28.3023 71.4208C27.5863 69.8288 27.4246 67.9811 27.06 66.2397C26.9055 65.5021 27.1672 65.0727 28.0392 64.9157C29.362 64.6775 30.245 63.8117 30.7702 62.5401C30.9288 62.156 31.3291 61.7365 31.7121 61.6046C33.1801 61.0988 33.9206 60.0612 34.3084 58.6207C34.4399 58.1321 34.7607 57.6152 35.1455 57.2891C36.3103 56.3019 36.7505 55.0247 36.6724 53.5899C36.6176 52.5829 37.0429 52.3342 37.928 52.265C43.3081 51.8447 48.7134 54.908 50.6119 59.9957C51.5163 62.4197 52.8698 64.935 52.0434 67.8552ZM50.5332 63.1145C50.4722 62.964 50.368 62.8168 50.3565 62.6627C50.0939 59.1411 47.8646 56.8894 45.2198 55.0274C42.9926 53.4595 40.4196 52.9684 37.6607 53.3226C37.6794 55.3326 37.0722 56.9458 35.5204 58.14C35.3293 58.2871 35.2406 58.6206 35.1869 58.8845C34.8517 60.53 33.8943 61.6534 32.3881 62.3532C32.112 62.4815 31.7538 62.6548 31.6512 62.8989C30.966 64.53 29.6831 65.4428 28.0955 65.9567C27.877 71.1202 31.4897 76.3049 36.3045 77.8341C38.2842 78.4629 40.2105 78.0141 42.2028 77.8221C44.5833 77.5927 45.9757 76.4757 47.5342 74.7528C49.28 72.8227 50.3673 70.8619 50.9382 68.3699C51.3501 66.5716 51.5197 64.9405 50.5332 63.1145Z" fill="#273B40"/>
<path d="M69.1307 69.9388C67.1371 67.4259 67.0827 64.6747 67.9757 61.8868C68.5063 60.2299 70.9821 60.0339 72.3692 61.413C74.1221 63.1556 74.2292 67.921 72.5561 69.7331C71.5623 70.8095 70.5547 70.891 69.1307 69.9388Z" fill="#1C3137"/>
<path d="M88.5852 34.1723C88.2946 36.7669 88.0755 37.0296 85.6322 37.5717C82.8736 38.1838 80.1371 38.0465 77.4151 37.3042C75.9042 36.8921 75.0496 36.1791 74.9108 34.3907C74.4064 27.8915 73.7063 21.4075 73.0635 14.7463C75.8963 16.4374 78.9283 16.8395 82.1526 17.0214C81.6171 19.6336 81.0915 22.2019 80.5639 24.7698C80.0231 27.4017 79.5062 30.0388 78.9239 32.6615C78.7365 33.5054 78.8765 33.9889 79.7962 34.1463C80.6532 34.2929 81.037 34.0123 81.2139 33.1244C82.2317 28.0138 83.3054 22.9144 84.3621 17.8116C84.4113 17.5743 84.4787 17.3407 84.5082 17.223C86.8466 16.645 89.1049 16.0868 91.3665 15.5277C90.4637 21.5897 89.5346 27.8288 88.5852 34.1723ZM79.1233 36.3243C77.8571 35.9087 76.5909 35.493 75.2588 35.0557C75.843 36.2658 76.9076 36.8109 78.0592 37.0241C81.0904 37.5852 84.1083 37.3274 87.0393 36.4087C87.5123 36.2605 87.8124 35.5603 88.1924 35.1153C88.1123 35.0492 88.0321 34.9832 87.952 34.9172C85.2498 36.5541 82.7405 36.9725 79.1233 36.3243ZM76.9993 18.3542C78.0709 18.4464 79.209 18.3417 80.1988 18.6763C81.7343 19.1953 81.3105 18.2387 81.455 17.3862C78.7072 18.388 76.3085 17.2268 73.8689 16.5159C73.8242 16.7019 73.7794 16.8879 73.7347 17.0739C74.7603 17.4762 75.7859 17.8784 76.9993 18.3542ZM85.6724 18.8418C87.3847 18.4687 89.2204 18.3879 90.497 17.006C88.6896 17.262 86.9286 17.5952 85.1845 18.001C84.9597 18.0533 84.8224 18.4822 84.6212 18.7701C84.8417 18.8462 84.9159 18.8916 84.9915 18.8939C85.1527 18.8986 85.3146 18.881 85.6724 18.8418Z" fill="#F7EFDF"/>
<path d="M75.9768 11.3092C75.1729 11.8436 73.8102 12.275 73.6887 12.9352C73.477 14.0845 74.9195 14.3021 75.796 14.7459C76.1434 14.9219 76.5252 15.0299 76.9879 15.2055C75.7832 15.4723 73.3772 14.3833 73.0638 13.3762C72.9457 12.9968 73.163 12.273 73.4742 12.0481C74.1834 11.5355 75.0452 11.2342 75.9604 10.922C76.0428 11.101 76.0098 11.2051 75.9768 11.3092Z" fill="#D3D0C3"/>
<path d="M85.4408 4.80895C85.5726 4.30052 85.6745 3.88575 85.8038 3.35974C86.6491 4.67725 86.3427 5.96885 85.1598 6.34426C85.2472 5.84234 85.3291 5.37247 85.4408 4.80895Z" fill="#DFDBCD"/>
<path d="M84.7939 8.0551C85.0237 7.79484 85.2278 7.63919 85.4319 7.48353C85.3382 8.5791 85.7715 9.80469 84.2544 10.6092C84.4605 9.6266 84.6143 8.89316 84.7939 8.0551Z" fill="#E4DFD0"/>
<path d="M83.3836 18.9016C83.1353 19.6153 83.4006 20.5395 82.161 20.6775C82.3136 19.9746 82.4129 19.3263 82.6116 18.7101C82.6766 18.5086 83 18.3905 83.2052 18.2343C83.269 18.4226 83.3328 18.6109 83.3836 18.9016Z" fill="#E4DFD0"/>
<path d="M81.907 26.0855C81.6755 26.6596 81.4562 27.1389 81.2368 27.6182C81.1079 27.5562 80.9789 27.4942 80.85 27.4322C81.0481 26.5959 80.673 25.4994 82.0911 25.0011C82.0125 25.4531 81.9658 25.7219 81.907 26.0855Z" fill="#E4DFD0"/>
<path d="M81.6935 22.8315C81.9263 22.403 82.1411 22.0692 82.356 21.7354C82.4693 21.8055 82.5826 21.8757 82.6958 21.9458C82.5342 22.7203 82.8153 23.7066 81.5189 24.0732C81.5803 23.6241 81.6279 23.2751 81.6935 22.8315Z" fill="#DFDBCD"/>
<path d="M81.0977 28.7139C81.1995 29.5222 81.3699 30.3969 80.3901 30.7502C80.2518 30.6818 80.1135 30.6134 79.9752 30.5451C80.3176 29.932 80.66 29.319 81.0977 28.7139Z" fill="#E6E1D2"/>
<path d="M83.7715 12.9303C84.0115 12.3734 84.2261 11.9134 84.4407 11.4534C84.5875 11.5134 84.7343 11.5734 84.8812 11.6334C84.7584 12.1718 84.689 12.7319 84.4848 13.2374C84.4095 13.4239 84.0166 13.4819 83.7685 13.5985C83.761 13.4081 83.7535 13.2177 83.7715 12.9303Z" fill="#DFDBCD"/>
<path d="M93.2294 6.62537C92.9241 6.27792 92.7083 5.97245 92.4925 5.66697C92.5722 5.59456 92.652 5.52215 92.7318 5.44973C93.3596 5.76105 93.9874 6.07237 94.6475 6.39973C94.2872 7.3954 93.7723 6.83384 93.2294 6.62537Z" fill="#EBE5D6"/>
<path d="M91.423 5.18796C90.7675 5.72813 89.9555 5.15221 89.7489 3.81466C90.4158 4.32852 90.9155 4.71353 91.423 5.18796Z" fill="#E6E1D2"/>
<path d="M88.1564 3.16186C88.3805 3.49181 88.5232 3.7739 88.6659 4.05602C88.5662 4.13636 88.4665 4.21671 88.3668 4.29705C87.777 3.84973 87.1872 3.40241 86.5974 2.95509C86.6827 2.8222 86.7679 2.68932 86.8532 2.55643C87.2604 2.74229 87.6677 2.92817 88.1564 3.16186Z" fill="#EBE5D6"/>
<path d="M82.5867 16.1156C82.9879 15.9294 83.4636 15.7643 83.9393 15.5993C83.9658 15.6988 83.9924 15.7984 84.019 15.8979C83.5664 15.9775 83.1139 16.0571 82.5867 16.1156Z" fill="#293C41"/>
<path d="M79.6828 16.1601C79.4561 15.9979 79.2981 15.8494 79.1401 15.701C79.2633 15.6418 79.3865 15.5826 79.5097 15.5234C79.5903 15.7402 79.6709 15.957 79.6828 16.1601Z" fill="#293C41"/>
<path d="M85.6096 16.0336C85.8242 15.8186 86.0226 15.6671 86.221 15.5157C86.2799 15.6235 86.3388 15.7313 86.3977 15.839C86.1296 15.9251 85.8615 16.0112 85.6096 16.0336Z" fill="#293C41"/>
<path d="M78.9878 10.3094C78.8038 10.4871 78.5956 10.6816 78.3875 10.876C78.327 10.7819 78.2664 10.6878 78.2059 10.5937C78.4199 10.5052 78.6339 10.4167 78.9316 10.314C79.0153 10.2997 78.9637 10.3261 78.9878 10.3094Z" fill="#293C41"/>
<path d="M78.2172 15.7598C78.034 15.668 77.8508 15.5762 77.6677 15.4845C77.7037 15.4241 77.7397 15.3638 77.7756 15.3034C77.9214 15.3978 78.0671 15.4922 78.2232 15.6633C78.2335 15.74 78.2172 15.7598 78.2172 15.7598Z" fill="#293C41"/>
<path d="M77.1093 11.0241C77.0916 10.9132 77.1278 10.8096 77.164 10.706C77.224 10.7388 77.2841 10.7716 77.3441 10.8044C77.2838 10.8801 77.2234 10.9558 77.1093 11.0241Z" fill="#293C41"/>
<path d="M84.0214 14.8294C84.0539 14.7576 84.1173 14.7188 84.1807 14.6801C84.1379 14.7408 84.0951 14.8016 84.0214 14.8294Z" fill="#293C41"/>
<path d="M76.0452 11.3026C76.0098 11.2051 76.0429 11.101 76.0517 10.9178C76.1347 10.9227 76.2419 11.0066 76.3491 11.0906C76.2706 11.1591 76.1921 11.2276 76.0452 11.3026Z" fill="#293C41"/>
<path d="M87.7218 15.2592C87.7676 15.2964 87.7521 15.343 87.7475 15.4624C87.6575 15.5523 87.5564 15.5692 87.4554 15.5862C87.5237 15.4804 87.5921 15.3745 87.7218 15.2592Z" fill="#293C41"/>
<path d="M78.2432 15.7316C78.2529 15.7233 78.325 15.7961 78.325 15.7961C78.325 15.7961 78.2472 15.8045 78.2322 15.7821C78.2172 15.7597 78.2335 15.74 78.2432 15.7316Z" fill="#293C41"/>
<path d="M88.7644 44.5621C88.6426 45.0346 88.4658 45.4285 88.2889 45.8224C88.0458 45.5597 87.5918 45.2899 87.6004 45.0357C87.6238 44.3431 88.1122 44.22 88.7644 44.5621Z" fill="#2D4144"/>
<path d="M50.5693 63.207C51.5197 64.9405 51.3501 66.5716 50.9382 68.3699C50.3673 70.8619 49.28 72.8227 47.5342 74.7528C45.9757 76.4757 44.5833 77.5927 42.2028 77.8221C40.2105 78.0141 38.2842 78.4629 36.3045 77.8341C31.4897 76.3049 27.877 71.1202 28.0955 65.9567C29.6831 65.4428 30.966 64.53 31.6512 62.8989C31.7538 62.6548 32.112 62.4815 32.3881 62.3532C33.8943 61.6534 34.8517 60.53 35.1869 58.8845C35.2406 58.6206 35.3293 58.2871 35.5204 58.14C37.0722 56.9458 37.6794 55.3326 37.6607 53.3226C40.4196 52.9684 42.9926 53.4595 45.2198 55.0274C47.8646 56.8894 50.0939 59.1411 50.3565 62.6627C50.368 62.8168 50.4722 62.964 50.5693 63.207ZM45.1763 63.4847C46.5507 63.4888 47.312 62.8994 47.3719 61.785C47.4284 60.7356 46.5826 59.6468 45.6648 59.5874C44.8626 59.5355 43.9291 60.408 43.8113 61.385C43.6961 62.3401 44.1135 63.0309 45.1763 63.4847ZM35.7472 70.3475C34.7264 70.0356 33.8769 70.2196 33.4479 71.2836C33.0843 72.1853 33.591 73.2279 34.5673 73.6936C35.3324 74.0586 36.0707 74.055 36.6382 73.3265C37.2457 72.5466 37.0576 71.3671 36.2309 70.5972C36.144 70.5162 36.0241 70.4706 35.7472 70.3475ZM39.9149 66.2635C41.0021 66.1171 41.5665 65.365 41.4267 64.407C41.3306 63.7489 40.8076 62.9865 40.2472 62.6288C39.9386 62.4319 38.9904 62.8217 38.6279 63.2187C38.0037 63.9022 38.0454 64.8315 38.6204 65.5833C38.8636 65.9013 39.3446 66.0371 39.9149 66.2635ZM33.132 67.8909C34.2645 67.9089 34.8834 67.3249 34.9428 66.2217C34.9948 65.2552 34.5467 64.5403 33.5433 64.4055C32.5819 64.2762 31.8597 64.7647 31.5877 65.6792C31.2405 66.8465 31.8889 67.5087 33.132 67.8909ZM41.3325 59.2691C42.1926 58.5799 42.2474 57.7589 41.6181 56.9219C41.0682 56.1907 40.2122 55.8611 39.4913 56.4368C39.0307 56.8047 38.6451 57.6769 38.7378 58.2385C38.9044 59.2486 39.8124 59.5642 40.8112 59.4501C40.9301 59.4366 41.0441 59.3805 41.3325 59.2691ZM43.2869 67.8027C42.5721 68.6272 42.4465 69.4863 43.2939 70.2679C43.9449 70.8683 44.715 70.8551 45.3869 70.2778C46.0581 69.7011 46.1608 68.9579 45.7083 68.1987C45.1472 67.2573 44.3634 67.1164 43.2869 67.8027ZM41.9684 72.0528C40.6491 72.664 40.108 73.8285 40.9278 74.5648C41.3822 74.973 42.273 75.2052 42.851 75.0585C43.2513 74.9569 43.6767 74.08 43.6933 73.5373C43.7203 72.656 43.1952 72.0026 41.9684 72.0528ZM42.9245 55.6102C42.8737 55.7403 42.7591 55.972 42.7814 55.986C43.874 56.6743 44.9783 57.344 46.0814 58.0156C46.1536 57.9149 46.2258 57.8142 46.2981 57.7135C45.5673 56.5853 44.502 55.8856 42.9245 55.6102ZM39.149 76.414C38.1479 76.3461 37.1468 76.2782 36.1457 76.2103C36.1285 76.3803 36.1112 76.5502 36.094 76.7202C37.1363 76.853 38.1774 77.07 39.2215 77.0853C39.797 77.0938 39.8169 76.8482 39.149 76.414ZM32.9767 74.1526C32.3644 73.2009 31.7522 72.2492 31.0527 71.1617C30.8411 72.6923 31.8137 74.1665 32.9767 74.1526ZM49.7844 66.7702C49.6167 66.7591 49.3099 66.7108 49.3014 66.7425C49.0697 67.6064 48.8684 68.4785 48.6477 69.4098C49.6048 69.0544 49.8041 68.6055 49.7844 66.7702ZM39.698 68.921C39.141 68.2823 38.4262 68.1554 37.3976 68.065C38.0979 69.0412 38.7262 69.3849 39.698 68.921ZM48.1038 71.8911C48.1741 71.6335 48.2443 71.3759 48.3649 70.9336C47.6109 71.5325 47.0701 71.962 46.5293 72.3916C46.6437 72.5333 46.7581 72.6749 46.8726 72.8166C47.2476 72.5556 47.6226 72.2946 48.1038 71.8911Z" fill="#F6EFDE"/>
<path d="M79.2285 36.3393C82.7405 36.9725 85.2498 36.5541 87.952 34.9172C88.0321 34.9832 88.1123 35.0492 88.1924 35.1153C87.8124 35.5603 87.5123 36.2605 87.0393 36.4087C84.1083 37.3274 81.0904 37.5852 78.0592 37.0241C76.9076 36.8109 75.843 36.2658 75.2588 35.0557C76.5909 35.493 77.8571 35.9086 79.2285 36.3393Z" fill="#2C4044"/>
<path d="M76.9054 18.3175C75.7858 17.8784 74.7603 17.4762 73.7347 17.0739C73.7794 16.8879 73.8242 16.7019 73.8689 16.5159C76.3085 17.2268 78.7072 18.388 81.455 17.3862C81.3105 18.2387 81.7343 19.1953 80.1988 18.6763C79.209 18.3417 78.0709 18.4464 76.9054 18.3175Z" fill="#293C41"/>
<path d="M85.5743 18.8571C85.3146 18.881 85.1527 18.8986 84.9915 18.8939C84.9159 18.8916 84.8417 18.8462 84.6212 18.7701C84.8224 18.4822 84.9597 18.0533 85.1845 18.001C86.9286 17.5952 88.6896 17.262 90.497 17.006C89.2204 18.3879 87.3847 18.4687 85.5743 18.8571Z" fill="#2C4044"/>
<path d="M45.082 63.4621C44.1135 63.0309 43.6961 62.3401 43.8113 61.385C43.9291 60.408 44.8626 59.5355 45.6648 59.5874C46.5826 59.6468 47.4284 60.7356 47.3719 61.785C47.312 62.8994 46.5507 63.4887 45.082 63.4621Z" fill="#273B40"/>
<path d="M35.8334 70.378C36.0241 70.4706 36.144 70.5162 36.2309 70.5972C37.0576 71.3671 37.2457 72.5466 36.6382 73.3265C36.0707 74.055 35.3324 74.0586 34.5673 73.6936C33.591 73.2279 33.0843 72.1853 33.4479 71.2836C33.8769 70.2196 34.7265 70.0356 35.8334 70.378Z" fill="#24393D"/>
<path d="M39.8163 66.2596C39.3447 66.0371 38.8636 65.9013 38.6204 65.5833C38.0454 64.8315 38.0037 63.9022 38.6279 63.2187C38.9904 62.8217 39.9386 62.4319 40.2472 62.6288C40.8076 62.9865 41.3306 63.7489 41.4267 64.407C41.5665 65.365 41.0021 66.1171 39.8163 66.2596Z" fill="#25393E"/>
<path d="M33.0362 67.8796C31.8889 67.5087 31.2405 66.8465 31.5877 65.6792C31.8597 64.7647 32.5819 64.2762 33.5433 64.4055C34.5467 64.5403 34.9948 65.2552 34.9428 66.2217C34.8834 67.3249 34.2646 67.9089 33.0362 67.8796Z" fill="#20353A"/>
<path d="M41.2465 59.3066C41.0442 59.3805 40.9301 59.4366 40.8112 59.4501C39.8124 59.5642 38.9044 59.2486 38.7378 58.2385C38.6451 57.6769 39.0307 56.8047 39.4913 56.4368C40.2122 55.8611 41.0682 56.1907 41.6181 56.9219C42.2474 57.7589 42.1926 58.5799 41.2465 59.3066Z" fill="#273B40"/>
<path d="M43.3624 67.74C44.3634 67.1164 45.1472 67.2573 45.7083 68.1987C46.1608 68.9579 46.0581 69.7011 45.3869 70.2778C44.715 70.8551 43.9449 70.8683 43.2939 70.2679C42.4465 69.4863 42.5721 68.6272 43.3624 67.74Z" fill="#24393D"/>
<path d="M42.0653 72.0424C43.1952 72.0026 43.7203 72.656 43.6933 73.5373C43.6767 74.08 43.2513 74.9569 42.851 75.0585C42.273 75.2052 41.3822 74.973 40.9278 74.5648C40.108 73.8285 40.6491 72.664 42.0653 72.0424Z" fill="#25393E"/>
<path d="M43.0235 55.5993C44.502 55.8856 45.5673 56.5853 46.2981 57.7135C46.2258 57.8142 46.1536 57.9149 46.0814 58.0156C44.9783 57.344 43.874 56.6743 42.7814 55.986C42.7591 55.972 42.8738 55.7403 43.0235 55.5993Z" fill="#2D4144"/>
<path d="M39.2544 76.4012C39.8169 76.8482 39.797 77.0938 39.2215 77.0853C38.1774 77.07 37.1363 76.853 36.094 76.7202C36.1112 76.5502 36.1285 76.3803 36.1457 76.2103C37.1468 76.2782 38.1479 76.3461 39.2544 76.4012Z" fill="#304346"/>
<path d="M32.9725 74.2431C31.8137 74.1665 30.8411 72.6923 31.0527 71.1617C31.7522 72.2492 32.3645 73.2009 32.9725 74.2431Z" fill="#2D4144"/>
<path d="M49.8061 66.8653C49.8041 68.6055 49.6048 69.0544 48.6477 69.4098C48.8684 68.4785 49.0697 67.6064 49.3014 66.7425C49.3099 66.7108 49.6167 66.7591 49.8061 66.8653Z" fill="#0F2F35"/>
<path d="M39.6569 68.9934C38.7262 69.3849 38.0979 69.0412 37.3976 68.065C38.4262 68.1554 39.1411 68.2823 39.6569 68.9934Z" fill="#0F2F35"/>
<path d="M48.0508 71.9624C47.6226 72.2946 47.2476 72.5556 46.8726 72.8166C46.7581 72.6749 46.6437 72.5333 46.5293 72.3916C47.0701 71.962 47.6109 71.5325 48.3649 70.9336C48.2443 71.3759 48.1741 71.6335 48.0508 71.9624Z" fill="#0F2F35"/>
</svg>
