<svg width="271" height="120" viewBox="0 0 271 120" fill="none" xmlns="http://www.w3.org/2000/svg">
<path d="M123.932 0.403085C123.87 0.710778 123.348 3.01847 122.826 5.57232C122.303 8.09539 121.812 10.4031 121.72 10.68C121.597 11.1108 120.89 11.2339 117.817 11.4185C115.759 11.5108 113.055 11.8185 111.826 12.0339C107.125 12.9262 103.776 15.2646 103.776 17.6646C103.776 18.28 104.544 26.5569 105.466 36.0339C107.309 54.8031 107.125 54.0339 109.306 55.5108C111.918 57.2646 118.34 58.3108 123.287 57.7569C126.636 57.4185 128.909 56.5262 130.384 55.0185L131.306 54.0339L134.01 36.0646C135.73 24.6492 136.652 17.7569 136.499 17.2031C135.976 15.1108 132.504 12.9262 128.356 12.1262C127.435 11.9415 126.636 11.7569 126.574 11.7262C126.482 11.6339 127.404 7.17232 127.557 7.01847C127.619 6.95693 129.77 7.97232 132.351 9.26462C134.932 10.5569 137.328 11.5723 137.666 11.5108C138.526 11.3877 139.786 9.51078 139.663 8.52616C139.571 7.84924 138.619 7.26462 132.197 3.94155C123.317 -0.643068 124.147 -0.273838 123.932 0.403085ZM139.11 8.71078C139.11 9.08001 138.772 9.7877 138.373 10.2492L137.605 11.1108L132.474 8.55693C129.647 7.14155 127.25 6.09539 127.127 6.24924C126.881 6.49539 124.055 20.0031 124.055 20.8954C124.055 21.4492 124.393 21.4185 127.588 20.7415C129.217 20.4031 131.245 19.48 131.582 18.9569C131.828 18.5569 128.418 16.9262 126.789 16.6492C126.083 16.5262 125.591 16.28 125.591 16.0339C125.591 15.3262 126.021 15.2646 127.68 15.7262C129.954 16.3108 131.982 17.3569 132.566 18.2492C133.027 18.9569 133.027 19.0185 132.197 19.88C130.446 21.6954 124.976 22.8339 119.292 22.5569C112.748 22.2492 107.156 20.28 107.156 18.3108C107.156 16.4954 112.871 14.6492 118.616 14.6492C120.736 14.6492 121.013 14.7108 120.921 15.1723C120.829 15.6646 120.306 15.7569 117.295 15.9108C115.359 16.0339 113.086 16.28 112.225 16.4954C110.413 16.9569 108.385 17.9415 108.385 18.3108C108.385 19.3569 113.516 20.9877 117.787 21.2954C120.245 21.5108 120.275 21.48 120.46 20.7723C120.552 20.3723 121.474 15.9415 122.518 10.9569C123.532 5.97232 124.454 1.63385 124.546 1.35693C124.669 0.895393 125.806 1.3877 131.92 4.43385C138.035 7.48001 139.11 8.12616 139.11 8.71078ZM121.228 13.3262L121.136 14.1877L116.988 14.4031C111.304 14.68 108.108 15.6646 106.725 17.5108L106.111 18.3415L106.756 19.1723C107.586 20.3108 110.013 21.5108 112.932 22.2185C116.25 23.0492 125.437 23.0492 128.356 22.2492C132.535 21.1108 134.071 19.8492 133.334 18.1877C132.934 17.2954 130.538 16.0031 127.895 15.2646C126.236 14.8031 126.052 14.68 126.144 14.0031C126.206 13.6031 126.298 13.2339 126.359 13.1723C126.605 12.9262 130.569 14.1877 132.136 15.0492C133.979 16.0031 135.024 17.0492 135.3 18.1569C135.392 18.5262 134.348 26.28 132.965 35.4492C131.613 44.5877 130.507 52.2185 130.507 52.4339C130.507 52.6185 130.077 53.2646 129.555 53.88C127.988 55.6646 125.284 56.3415 119.599 56.3415C115.697 56.3415 114.653 56.2492 112.84 55.6646C110.351 54.8646 108.907 54.0339 108.262 53.0492C107.924 52.5262 107.371 47.9723 106.234 36.1877C105.374 27.2954 104.667 19.4492 104.636 18.7415C104.452 15.0492 109.767 12.6492 118.309 12.5262L121.32 12.4954L121.228 13.3262ZM119.845 16.9877C120.429 17.1723 120.552 18.0031 119.999 18.0646C119.784 18.0954 118.432 18.1569 117.019 18.2185C115.574 18.2492 113.454 18.5262 112.318 18.8339C111.15 19.1108 110.136 19.2646 110.044 19.1723C109.644 18.8031 110.32 18.3415 112.01 17.8492C112.963 17.5723 114.038 17.2339 114.376 17.08C115.574 16.5569 118.155 16.5262 119.845 16.9877ZM128.448 18.1262C129.8 18.6185 130.353 19.08 130.077 19.5415C129.831 19.9108 128.049 20.0031 128.049 19.6339C128.049 19.5108 127.435 19.2031 126.666 18.9877C125.038 18.4954 124.792 17.7262 126.298 17.7262C126.82 17.7262 127.803 17.9108 128.448 18.1262Z" fill="#FDF3E0"/>
<path d="M126.513 3.20309C126.513 4.00309 127.004 4.55694 128.111 5.14155L129.34 5.75694L129.217 5.04924C129.155 4.5877 128.664 4.0954 127.834 3.63386C127.097 3.23386 126.513 3.04924 126.513 3.20309Z" fill="#FDF3E0"/>
<path d="M124.608 6.4954C124.362 7.75694 124.208 8.80309 124.27 8.80309C125.468 8.80309 126.328 5.97232 125.499 4.80309C125.099 4.21848 125.038 4.34155 124.608 6.4954Z" fill="#FDF3E0"/>
<path d="M130.814 5.3877C130.814 6.0954 131.245 6.71078 132.074 7.11078C133.18 7.6954 133.272 7.6954 133.272 6.95693C133.272 6.55693 132.842 6.12616 132.043 5.72616C131.367 5.3877 130.814 5.23386 130.814 5.3877Z" fill="#FDF3E0"/>
<path d="M135.085 7.94154C135.362 8.74154 137.082 9.88 137.574 9.57231C138.219 9.17231 137.851 8.58769 136.499 7.94154C134.778 7.11077 134.778 7.11077 135.085 7.94154Z" fill="#FDF3E0"/>
<path d="M124.116 10.6185C123.717 10.8646 122.734 14.6492 123.041 14.6492C123.747 14.6492 124.331 13.8492 124.516 12.6185C124.608 11.8185 124.792 10.9877 124.884 10.7723C125.069 10.28 124.731 10.2185 124.116 10.6185Z" fill="#FDF3E0"/>
<path d="M122.949 16.4339C122.611 16.6492 121.812 18.9877 122.027 19.1723C122.365 19.5108 123.164 18.7108 123.44 17.7877C123.901 16.1262 123.809 15.88 122.949 16.4339Z" fill="#FDF3E0"/>
<path d="M121.904 21.1108C121.535 21.3569 121.566 21.4185 122.15 21.4185C122.518 21.4185 122.826 21.2646 122.826 21.1108C122.826 20.7108 122.488 20.7108 121.904 21.1108Z" fill="#FDF3E0"/>
<path d="M106.541 21.2338C106.572 21.4185 107.217 28.4031 108.016 36.7723L109.491 51.9723L110.382 52.6492C113.639 55.2646 125.868 55.3877 128.203 52.8031C128.602 52.3723 129.247 48.6492 130.968 37.0492C132.228 28.7108 133.211 21.8492 133.149 21.8185C133.088 21.7569 132.289 22.0646 131.337 22.4954C130.415 22.9262 128.233 23.5108 126.451 23.7877L123.225 24.3108L120.859 36.0031C119.538 42.4646 118.309 48.0646 118.094 48.4954C117.664 49.4492 116.404 49.6339 115.482 48.8954L114.776 48.3108L117.141 36.9569C118.432 30.68 119.538 25.2954 119.63 24.9262C119.784 24.3415 119.63 24.28 117.541 24.0954C113.977 23.7877 110.873 23.0492 108.63 21.9415C107.463 21.3877 106.541 21.0492 106.541 21.2338ZM110.505 24.4031C112.871 25.2338 116.128 25.5108 118.002 25.0185C118.678 24.8338 118.831 24.8954 118.831 25.3569C118.831 25.6646 118.647 26.1877 118.401 26.5262C118.032 26.9877 117.848 27.0492 117.357 26.7723C117.019 26.5569 116.619 26.5262 116.343 26.68C115.083 27.3569 107.063 24.7723 107.647 23.8492C107.862 23.48 107.893 23.48 110.505 24.4031ZM132.043 24.3108C132.043 24.8338 129.647 25.88 127.066 26.4954C124.577 27.08 123.44 27.08 123.44 26.5262C123.44 25.88 123.717 25.7877 126.421 25.2954C127.742 25.08 129.309 24.6492 129.893 24.4031C131.275 23.7877 132.043 23.7569 132.043 24.3108ZM111.365 51.1108C115.574 53.2954 124.116 53.3262 127.004 51.1108C128.172 50.2185 128.356 50.1877 128.356 50.7723C128.356 52.5262 124.577 53.6646 118.401 53.7569C114.837 53.8185 114.192 53.7569 112.84 53.1415C111.365 52.4954 109.614 51.1108 109.614 50.5877C109.614 50.2185 109.706 50.2492 111.365 51.1108Z" fill="#FDF3E0"/>
<path d="M120.583 26.2492C120.491 26.4031 120.337 26.9877 120.214 27.5723C120.122 28.1569 119.937 28.8954 119.876 29.1723C119.753 29.5415 119.876 29.6339 120.337 29.5108C120.951 29.3569 121.597 27.8492 121.597 26.5569C121.597 26.0339 120.829 25.8185 120.583 26.2492Z" fill="#FDF3E0"/>
<path d="M119.507 31.7877C119.354 32.0954 119.139 32.8646 119.016 33.5108C118.801 34.6185 118.831 34.68 119.415 34.3416C119.784 34.1569 120.122 33.6339 120.245 33.1723C120.337 32.7108 120.491 32.0954 120.583 31.7877C120.675 31.4492 120.552 31.2646 120.245 31.2646C119.999 31.2646 119.661 31.5108 119.507 31.7877Z" fill="#FDF3E0"/>
<path d="M118.954 36.1877C118.463 36.3723 118.248 36.8031 118.094 37.88C117.848 39.4492 117.91 39.6646 118.586 39.4185C118.924 39.2954 119.876 36.2185 119.63 36.0031C119.63 35.9723 119.292 36.0646 118.954 36.1877Z" fill="#FDF3E0"/>
<path d="M117.879 41.3569C117.572 41.4185 117.264 41.88 117.141 42.5262C117.049 43.1416 116.865 43.8185 116.773 44.0646C116.65 44.4031 116.773 44.4339 117.326 44.2492C117.848 44.0339 118.125 43.6031 118.278 42.8031C118.586 41.3877 118.524 41.2031 117.879 41.3569Z" fill="#FDF3E0"/>
<path d="M116.373 46.6185C115.882 47.5723 116.005 48.1877 116.681 48.1877C117.019 48.1877 117.295 48.0031 117.295 47.7877C117.295 47.6031 117.387 47.1108 117.479 46.7108C117.725 45.8492 116.834 45.7569 116.373 46.6185Z" fill="#FDF3E0"/>
<path d="M187.749 10.5569C187.442 10.68 187.35 16.4339 187.35 37.88V65.0492L188.056 65.2339C189.285 65.5415 207.628 65.4492 208.274 65.1108C208.827 64.8031 208.857 64.3723 208.857 57.2646V49.7569L210.302 48.6492C211.5 47.7262 211.807 47.6339 212.145 47.9723C212.36 48.1877 213.958 52.0339 215.648 56.5262C217.368 60.9877 218.997 64.8339 219.243 65.0185C219.611 65.3262 222.407 65.4185 230.765 65.4185C241.365 65.4185 242.963 65.2954 242.963 64.4954C242.963 64.3108 239.829 57.6954 236.019 49.7569L229.075 35.2954L235.558 23.4185C239.122 16.8646 242.041 11.3569 242.041 11.1108C242.041 10.8954 241.826 10.6185 241.55 10.5262C240.597 10.1569 218.137 10.3108 217.891 10.68C217.768 10.8954 216.201 15.1415 214.388 20.1569L211.1 29.2646H209.011L208.919 20.2185C208.888 14.1569 208.735 11.0185 208.519 10.7415C208.243 10.4339 206.154 10.3415 198.134 10.3723C192.634 10.3723 187.933 10.4646 187.749 10.5569Z" fill="#FDF3E0"/>
<path d="M144.18 10.9569C144.088 11.1108 143.228 24.1569 142.275 39.9108C140.831 64.0646 140.647 68.6185 140.985 68.9262C141.292 69.2031 146.638 69.6031 158.775 70.3108C168.33 70.8646 177.056 71.3877 178.193 71.48C180.16 71.6646 180.252 71.6339 180.406 70.9262C180.528 70.5262 180.866 65.6339 181.204 60.0339C181.696 51.9723 181.727 49.8185 181.419 49.5415C181.204 49.3262 178.193 49.0185 173.308 48.7415C168.638 48.4954 165.411 48.1877 165.196 47.9723C164.951 47.7262 165.166 42.8646 165.934 30.1569C166.671 17.48 166.886 12.5569 166.64 12.28C166.425 12.0339 162.861 11.6954 156.04 11.2954C144.149 10.5569 144.426 10.5569 144.18 10.9569Z" fill="#FDF3E0"/>
<path d="M85.832 14.1877C79.7791 14.5262 79.3489 14.5877 78.9495 15.2339C78.7037 15.5723 75.6926 20.7723 72.282 26.7415C67.581 34.9262 65.9218 37.5723 65.4917 37.5723C65.0922 37.5723 62.6649 34.5262 57.4723 27.4185C53.3551 21.8185 49.8523 17.0185 49.6373 16.7108C49.2685 16.1877 48.8691 16.1877 40.819 16.6492C36.1794 16.9262 32.2773 17.2031 32.1236 17.2954C32.0007 17.3877 31.8778 18.2492 31.8778 19.2031C31.8778 23.5415 34.6431 71.3877 34.9197 71.6646C35.3498 72.0954 53.7545 71.0492 54.1846 70.5569C54.4612 70.28 54.4305 68.28 54.1232 62.8339C53.693 55.4185 53.7545 54.6492 54.7377 54.6492C54.9528 54.6492 57.503 58.1877 60.4219 62.5262L65.7375 70.4031L67.1509 70.2185C67.9497 70.1262 68.7486 69.8492 68.9329 69.6339C69.148 69.4492 71.1145 65.7569 73.3574 61.48C75.6004 57.1723 77.6283 53.6031 77.8434 53.5108C78.9188 53.1108 79.0724 53.9108 79.4718 61.48C79.6869 65.6031 79.9942 69.08 80.1171 69.2339C80.4243 69.5415 99.1977 68.5877 99.5357 68.2492C99.7507 68.0339 97.1391 15.9108 96.8318 14.4031C96.7089 13.7569 96.5553 13.7262 94.4659 13.7569C93.2676 13.7877 89.3655 13.9723 85.832 14.1877Z" fill="#FDF3E0"/>
<path d="M129.585 60.4954C129.585 62.2492 129.555 62.3415 129.002 62.0339C127.895 61.4492 126.052 61.6646 125.192 62.4646C123.563 63.9723 123.84 67.3877 125.683 68.4954C126.851 69.2339 127.588 69.2646 128.725 68.68C129.186 68.4338 129.585 68.3415 129.647 68.4954C129.708 68.6492 130.446 68.8031 131.275 68.8339L132.812 68.9262L132.904 63.7877L132.965 58.6492H129.585V60.4954ZM129.432 65.2646C129.432 66.0339 129.309 66.1877 128.664 66.1877C128.172 66.1877 127.865 66.0031 127.803 65.6339C127.619 64.7108 127.988 64.1262 128.725 64.2492C129.278 64.3108 129.432 64.5262 129.432 65.2646Z" fill="#FDF3E0"/>
<path d="M107.432 62.5569C107.279 63.0492 107.094 63.5723 107.033 63.7262C106.971 63.9416 107.34 64.0031 107.954 63.9416C109.184 63.7877 110.535 64.0646 110.535 64.4954C110.535 64.6492 110.044 64.68 109.491 64.5877C107.309 64.2492 105.927 65.1108 105.927 66.7723C105.927 68.1262 106.848 68.9262 108.323 68.8954C108.938 68.8646 110.474 68.8339 111.703 68.8339H113.915V66.1877C113.915 63.6646 113.885 63.48 113.024 62.6185C112.195 61.7877 111.949 61.7262 109.952 61.7262C107.832 61.7262 107.739 61.7569 107.432 62.5569ZM110.628 66.2185C110.966 66.5569 110.474 67.2646 109.921 67.2646C109.368 67.2646 108.876 66.5569 109.214 66.2185C109.337 66.1262 109.644 66.0339 109.921 66.0339C110.197 66.0339 110.505 66.1262 110.628 66.2185Z" fill="#FDF3E0"/>
<path d="M115.144 68.8031H118.831V66.7723C118.831 65.0185 118.893 64.7723 119.384 64.8646C119.815 64.9569 119.937 65.3569 119.999 66.8954L120.091 68.8031H123.44V66.0646C123.44 62.6492 122.887 61.7262 120.921 61.7262C120.153 61.7262 119.415 61.9415 119.077 62.2492C118.555 62.7108 118.524 62.7108 118.524 62.2492C118.524 61.8185 118.217 61.7262 116.834 61.7262H115.144V68.8031Z" fill="#FDF3E0"/>
<path d="M197.796 73.6339C197.766 74.1262 197.028 83.4185 196.137 94.3415C195.246 105.265 194.601 114.28 194.693 114.372C194.908 114.588 227.877 117.265 228.03 117.08C228.153 116.957 229.106 105.295 229.013 105.203C228.983 105.172 225.326 104.865 220.84 104.495C216.355 104.126 212.667 103.788 212.606 103.726C212.545 103.695 212.606 102.957 212.729 102.095C212.913 100.618 212.975 100.526 213.743 100.649C215.064 100.865 227.324 101.788 227.446 101.665C227.631 101.48 228.307 91.5723 228.153 91.3877C228.061 91.2954 224.589 90.9569 220.502 90.6185C216.385 90.28 212.913 89.88 212.76 89.7569C212.637 89.6339 212.637 88.68 212.729 87.6339L212.944 85.7262H214.665C215.617 85.7262 219.212 85.88 222.653 86.0339C226.095 86.2185 228.983 86.28 229.044 86.2185C229.198 86.0954 230.089 75.5108 229.997 75.3877C229.905 75.3262 198.964 72.8031 198.196 72.8031C197.981 72.8031 197.796 73.1723 197.796 73.6339Z" fill="#FDF3E0"/>
<path d="M97.7843 73.7262C89.3655 75.0492 83.1282 80.7108 81.469 88.5569C80.793 91.7569 81.0388 98.8646 81.9299 101.972C82.9746 105.542 84.265 107.788 86.6924 110.218C89.1197 112.649 91.8543 114.157 95.6335 115.142C98.7061 115.972 108.262 115.972 111.15 115.172C117.817 113.295 122.15 109.326 123.932 103.418C124.823 100.557 124.669 94.4954 123.655 90.5877C121.443 82.1569 115.882 76.2492 108.231 74.1877C106.019 73.5723 100.335 73.3569 97.7843 73.7262ZM104.728 88.5877C106.418 89.6954 107.279 91.7877 107.401 95.1723C107.524 97.7877 107.463 98.1877 106.725 99.6954C105.834 101.511 104.421 102.649 103.1 102.649C100.242 102.649 97.8765 97.7877 98.3681 92.8646C98.6139 90.5877 98.9826 89.5108 99.8429 88.5569C100.765 87.6031 103.253 87.6031 104.728 88.5877Z" fill="#FDF3E0"/>
<path d="M52.2797 75.6954C51.573 76.4031 51.235 77.0492 51.235 77.6031C51.235 79.6646 50.8356 80.8339 49.8523 81.7877C49.1764 82.4031 48.7769 83.1108 48.654 83.9723C48.4082 85.48 46.5647 87.48 45.1206 87.7569C44.0452 87.9723 43.7072 88.3108 43.4307 89.5416C43.0927 90.9569 41.0648 92.8031 39.8972 92.8031C37.9308 92.8031 37.8386 94.7723 39.3749 102.495C40.0201 105.726 41.9251 109.603 43.7994 111.48C45.4893 113.203 49.9752 115.788 52.2797 116.403C53.9696 116.895 58.3941 116.803 63.218 116.188C66.8436 115.757 68.5335 114.865 70.5614 112.342C71.4832 111.234 72.8044 109.911 73.5725 109.388C75.8155 107.818 76.0306 107.48 76.2149 104.865C76.3071 103.572 76.6451 101.726 77.0138 100.803C77.8127 98.7416 77.8741 95.4185 77.1674 93.2339C76.8909 92.4031 76.5836 90.3723 76.43 88.7416C76.2457 86.3416 76.0613 85.5108 75.3853 84.3415C73.4189 80.9877 68.6564 77.0185 65.0615 75.7262C63.9554 75.3262 57.7181 74.7415 53.9081 74.6492C53.5701 74.6492 52.8634 75.1108 52.2797 75.6954ZM62.542 76.68C66.1369 77.88 69.0559 79.9723 71.4217 83.1108C73.2653 85.5416 74.2485 87.5723 74.4943 89.3569C74.5865 90.1569 74.9552 91.3569 75.2932 92.0339C76.2149 93.9108 76.3378 96.9262 75.5697 99.48C75.2317 100.618 74.7708 102.372 74.5865 103.388C74.2792 104.957 74.0027 105.418 72.4971 106.926C71.5446 107.88 70.0698 109.542 69.2095 110.649C67.3967 112.957 65.8911 113.911 63.7096 114.188C62.8493 114.311 61.0979 114.588 59.8382 114.834C50.8356 116.618 41.9251 109.818 39.7129 99.48C39.1598 96.8646 39.1291 94.68 39.6514 94.5262C39.8358 94.4339 40.3888 94.3108 40.819 94.2185C42.2017 93.9108 43.6765 92.68 44.4754 91.1416C45.0591 90.0339 45.52 89.5416 46.2267 89.2954C46.749 89.1108 47.5786 88.6492 48.0088 88.2492C48.9306 87.4492 49.9752 85.3262 50.006 84.28C50.006 83.8492 50.3132 83.4185 50.8663 83.1416C52.126 82.4954 53.1093 80.4954 53.3243 78.0954L53.5394 76.0339L54.9221 75.88C57.2265 75.6031 60.1762 75.9108 62.542 76.68Z" fill="#FDF3E0"/>
<path d="M54.7992 78.5262C54.5226 80.5569 53.3243 83.0492 52.2182 83.88C51.573 84.3415 51.235 84.9262 51.1121 85.7262C50.8663 87.2954 49.2378 89.3569 47.5479 90.2492C46.7183 90.7108 45.9502 91.3877 45.6429 92.0031C44.967 93.2954 43.277 94.8031 41.8944 95.2954C40.9419 95.6339 40.7883 95.8492 40.7883 96.6492C40.7883 98.6185 41.495 101.357 42.6625 103.849C43.615 105.88 44.3217 106.895 46.2267 108.803C47.5479 110.126 49.33 111.542 50.221 112.003C53.3243 113.572 57.0114 114.126 59.5616 113.418C60.1761 113.234 61.651 112.988 62.8493 112.834C65.6146 112.495 66.9051 111.695 68.4413 109.388C69.1173 108.403 70.162 107.234 70.7765 106.772C72.1284 105.726 73.3574 103.665 73.3574 102.372C73.3574 101.849 73.634 100.649 73.9412 99.6954C74.9552 96.8339 75.0166 95.6031 74.2792 93.5723C73.9105 92.5569 73.4496 90.8954 73.2345 89.8492C72.7122 87.3877 71.4832 85.2031 69.3017 82.8031C66.1062 79.3262 62.4498 77.5416 57.7181 77.2031L55.0142 77.0185L54.7992 78.5262ZM57.503 78.6185C57.5952 78.7723 57.1958 79.1723 56.612 79.5416C55.3522 80.28 54.7377 79.7877 55.8438 78.8954C56.5812 78.28 57.2572 78.1877 57.503 78.6185ZM64.2934 81.08C65.8911 81.7877 67.6732 83.5416 67.243 83.9723C67.0587 84.1569 66.5363 83.9416 65.7375 83.2954C65.0615 82.7723 64.0168 82.1262 63.4331 81.88C62.2655 81.3877 61.8661 81.0185 62.204 80.68C62.5113 80.3723 62.9722 80.4646 64.2934 81.08ZM60.1147 82.2185C61.8353 83.6646 61.0672 86.3416 58.9471 86.3416C57.7488 86.3416 56.1511 84.9877 56.1511 83.9723C56.1511 81.6954 58.3326 80.7108 60.1147 82.2185ZM67.8268 87.1723C69.1787 88.4031 69.3631 89.9415 68.2877 91.2031C67.6425 91.9723 67.2123 92.1877 66.4134 92.1877C63.6174 92.1877 62.7878 88.1877 65.3073 86.8339C66.4749 86.1877 66.7822 86.2185 67.8268 87.1723ZM55.9975 88.1877C55.9975 88.4339 55.7209 88.68 55.3829 88.7416C55.045 88.8031 54.5226 89.08 54.2154 89.3569C53.478 90.0031 52.7713 89.3877 53.4165 88.6185C54.2461 87.6031 55.9975 87.2954 55.9975 88.1877ZM59.3158 91.2646C60.3605 92.0954 60.6678 93.6646 60.0225 94.9262C59.1622 96.5569 56.8578 96.5877 55.9975 94.9569C55.3215 93.6646 55.4137 92.68 56.3354 91.6031C57.2572 90.4954 58.2097 90.4031 59.3158 91.2646ZM49.668 93.7262C50.4361 94.1262 51.0506 95.6954 50.8048 96.6492C50.2825 98.7108 48.101 99.2646 46.5647 97.7262C45.7965 96.9262 45.6736 96.6185 45.8273 95.7877C46.1653 93.9723 48.1624 92.8954 49.668 93.7262ZM70.2849 94.9262C70.2849 95.7262 68.7486 96.9262 68.3184 96.4954C68.1034 96.28 68.2877 95.9108 68.9022 95.2646C69.9162 94.1877 70.2849 94.0954 70.2849 94.9262ZM72.4357 97.88C72.4357 99.4492 71.9133 100.803 71.2988 100.803C70.8072 100.803 70.8072 100.403 71.2066 99.1416C71.3603 98.6185 71.5754 97.8185 71.6675 97.3262C71.9441 96.0031 72.4357 96.3416 72.4357 97.88ZM44.1374 98.6492C44.7826 99.88 44.7826 99.88 44.1681 99.88C43.4614 99.88 42.7547 98.6492 43.0312 97.9108C43.3078 97.2031 43.4307 97.2954 44.1374 98.6492ZM66.1369 98.4954C67.6117 99.9723 66.5978 102.649 64.5699 102.649C63.3409 102.649 62.2962 101.542 62.2962 100.28C62.2962 99.0185 63.4638 97.7262 64.6006 97.7262C65.0308 97.7262 65.7375 98.0646 66.1369 98.4954ZM56.5505 99.2646C57.7795 99.7262 58.0868 100.495 57.0729 100.495C56.3047 100.495 54.6148 99.6646 54.6148 99.2954C54.6148 98.9877 54.9835 98.6185 55.1986 98.7108C55.2908 98.7723 55.9053 99.0185 56.5505 99.2646ZM52.9249 102.803C53.6623 103.511 53.8467 104.188 53.693 105.572C53.5394 107.049 52.0339 107.788 50.4976 107.142C48.5311 106.311 47.9166 104.372 49.1149 102.834C49.9752 101.726 51.8495 101.695 52.9249 102.803ZM70.2849 103.726C70.2849 104.28 68.9637 105.726 68.4721 105.726C67.7654 105.726 67.8268 105.018 68.6564 104.218C69.6396 103.234 70.2849 103.049 70.2849 103.726ZM45.8887 104.249C45.9809 104.649 46.5647 105.603 47.1177 106.434C48.2853 108.065 48.3468 108.188 47.763 108.188C46.9027 108.188 44.7826 105.234 44.7826 104.034C44.7826 103.326 45.6429 103.48 45.8887 104.249ZM62.7878 105.234C64.447 106.618 63.5867 109.418 61.5281 109.418C60.6985 109.418 59.3465 108.403 59.07 107.572C58.8242 106.803 59.6845 105.142 60.5448 104.803C61.5895 104.372 61.8968 104.434 62.7878 105.234ZM56.8885 105.972C56.8578 106.188 56.8271 106.742 56.8271 107.265C56.7349 108.711 55.8438 108.495 55.8438 107.018C55.8438 106.372 55.936 105.726 56.0589 105.603C56.3662 105.326 56.9192 105.572 56.8885 105.972ZM65.9833 109.88C65.9833 110.403 65.0615 110.957 64.1705 110.957C63.2794 110.957 63.3716 110.434 64.3856 109.911C65.461 109.326 65.9833 109.295 65.9833 109.88ZM56.3969 110.957C57.5952 110.957 57.9946 111.08 57.9946 111.418C57.9946 112.342 55.1371 112.403 53.2322 111.511C52.0646 110.988 52.2797 110.526 53.6316 110.772C54.2461 110.865 55.5058 110.957 56.3969 110.957Z" fill="#FDF3E0"/>
<path d="M59.1929 83.6954C59.4694 84.3108 59.8074 84.6492 59.9611 84.4954C60.1147 84.3415 60.0225 83.88 59.7153 83.4492C58.9778 82.28 58.6091 82.4646 59.1929 83.6954Z" fill="#FDF3E0"/>
<path d="M66.7821 88.2185C66.905 88.4338 67.1201 89.1108 67.2123 89.7262C67.3967 90.6185 67.4581 90.7108 67.6732 90.2185C67.9804 89.5415 67.5196 88.1262 66.9358 87.9415C66.6592 87.8492 66.5978 87.9415 66.7821 88.2185Z" fill="#FDF3E0"/>
<path d="M58.9471 92.8031C58.9164 93.0492 58.8242 93.6031 58.732 94.0339C58.5784 94.6185 58.6091 94.7108 58.8857 94.4646C59.1007 94.28 59.2236 93.7262 59.1315 93.2339C59.07 92.7415 58.9778 92.5569 58.9471 92.8031Z" fill="#FDF3E0"/>
<path d="M48.8998 95.9108C48.8691 96.68 48.992 97.08 49.2071 97.0185C49.6987 96.8646 49.7909 95.4185 49.33 95.0185C48.992 94.7723 48.8998 94.9262 48.8998 95.9108Z" fill="#FDF3E0"/>
<path d="M65.0001 99.3262C65.2151 99.5416 65.3688 99.9416 65.3688 100.249C65.3688 100.557 65.5224 100.803 65.676 100.803C65.8604 100.803 65.9833 100.649 65.9833 100.465C65.9833 99.9108 65.3688 98.9569 65.0001 98.9569C64.7235 98.9569 64.7235 99.0492 65.0001 99.3262Z" fill="#FDF3E0"/>
<path d="M51.3272 103.48C51.573 103.788 51.8495 104.434 51.9109 104.957C52.0339 106.065 52.5869 106.065 52.7098 104.988C52.7713 104.526 52.5562 103.972 52.1875 103.603C51.3886 102.803 50.6205 102.711 51.3272 103.48Z" fill="#FDF3E0"/>
<path d="M61.8353 106.342C62.1426 107.418 62.6035 107.849 62.6035 107.049C62.6035 106.711 62.3884 106.218 62.1119 106.003C61.651 105.634 61.6202 105.665 61.8353 106.342Z" fill="#FDF3E0"/>
<path d="M18.8194 76.0031C13.8726 76.9569 8.98725 79.6339 5.91468 83.0492C3.70244 85.5108 1.33656 90.2492 0.691327 93.48C0.445522 94.7723 0.230442 97.1415 0.230442 98.7415C0.230442 108.28 5.30017 114.372 15.4396 116.988C17.867 117.634 19.5261 117.818 23.4283 117.942C28.836 118.126 32.1851 117.726 35.9029 116.434L37.9308 115.726L36.118 109.572C35.1348 106.188 34.2437 103.265 34.1823 103.049C34.0901 102.772 33.537 102.926 32.2773 103.511C30.6795 104.249 30.1572 104.342 27.1154 104.342C24.2579 104.311 23.4897 104.218 22.1378 103.603C20.1406 102.711 18.5122 100.957 18.0513 99.2339C17.0374 95.5415 20.3865 90.8954 24.5344 90.1877C26.1936 89.9108 28.9589 90.5569 31.2326 91.7569C32.3387 92.3108 33.2298 92.7723 33.2605 92.7108C33.2912 92.68 35.2269 90.1569 37.5314 87.1415C41.3721 82.1877 41.7715 81.5416 41.5257 80.8339C40.9419 79.2031 37.7772 77.7877 32.1851 76.6185C27.7606 75.6954 21.8306 75.4185 18.8194 76.0031Z" fill="#FDF3E0"/>
<path d="M160.004 77.1108C157.208 77.2339 153.674 77.3569 152.138 77.3877L149.311 77.4185L145.993 81.88L142.644 86.3723L142.367 82.0339C142.183 78.68 142.029 77.7262 141.691 77.7262C140.769 77.7262 127.004 78.9877 126.912 79.08C126.728 79.2646 128.141 119.726 128.326 119.942C128.418 120.065 132.105 119.849 136.499 119.48L144.487 118.803L144.364 115.018C144.334 112.957 144.334 111.265 144.426 111.265C144.518 111.265 145.931 112.926 147.591 114.988L150.632 118.68L157.546 118.465C161.356 118.372 165.319 118.188 166.395 118.065L168.33 117.88L161.571 107.295C157.822 101.449 154.78 96.5569 154.78 96.4339C154.78 96.28 157.607 91.9723 161.018 86.8646C164.459 81.7569 167.378 77.3877 167.501 77.1723C167.654 76.8954 167.378 76.8031 166.395 76.8646C165.657 76.8954 162.8 77.0185 160.004 77.1108Z" fill="#FDF3E0"/>
<path d="M247.418 77.0185C241.703 77.8185 236.572 80.9877 234.636 84.9569C233.592 87.1108 233.561 91.0492 234.606 93.1723C236.849 97.7262 241.15 100.957 249.415 104.311C251.996 105.357 252.949 106.095 252.672 106.803C252.334 107.726 250.521 107.142 246.681 104.926L243.178 102.895L236.849 105.972C233.377 107.665 230.519 109.234 230.519 109.449C230.519 110.034 234.329 113.142 236.756 114.588C243.209 118.372 253.809 120.342 259.678 118.803C263.826 117.726 268.158 114.618 269.817 111.572C270.616 110.095 270.677 109.757 270.555 107.572C270.37 104.526 269.356 102.342 266.96 99.9108C264.932 97.8185 262.259 96.2185 256.482 93.5723C251.412 91.2954 250.337 90.5877 250.337 89.5723C250.337 87.1108 255.775 88.3415 258.602 91.4185C259.401 92.28 260.046 92.7415 260.261 92.5877C260.477 92.4646 262.935 90.5877 265.792 88.3723L270.923 84.3723L269.325 82.7415C265.7 79.0492 258.541 76.7415 251.167 76.8339C249.6 76.8646 247.94 76.9569 247.418 77.0185Z" fill="#FDF3E0"/>
<path d="M171.987 117.726H190.422V82.0339H171.987V117.726Z" fill="#FDF3E0"/>
</svg>
