<svg width="32" height="32" viewBox="0 0 32 32" fill="none" xmlns="http://www.w3.org/2000/svg">
<path d="M31.9843 8.47727C31.8409 11.6281 29.6656 15.9423 25.4584 21.42C21.1078 27.14 17.4264 30 14.4145 30C12.5499 30 10.9722 28.2549 9.68136 24.7647L7.09968 15.1668C6.14349 11.6766 5.11558 9.93151 4.01598 9.93151C3.77694 9.93151 2.94027 10.4405 1.50596 11.4585L0 9.49524C1.56436 8.10153 3.1182 6.69573 4.66138 5.27795C6.76498 3.43591 8.34269 2.46644 9.39448 2.36947C11.8806 2.12711 13.4104 3.84796 13.9841 7.53202C14.6057 11.5069 15.0359 13.9791 15.275 14.9486C15.9921 18.2449 16.781 19.8931 17.6415 19.8931C18.3108 19.8931 19.3149 18.8266 20.6535 16.6937C21.9922 14.5608 22.7093 12.937 22.8049 11.822C22.9961 9.98001 22.279 9.059 20.6535 9.059C19.8885 9.059 19.0997 9.22868 18.2869 9.56799C19.8647 4.3812 22.8766 1.86052 27.3229 2.00595C30.6217 2.10291 32.1755 4.26004 31.9843 8.47733L31.9843 8.47727Z" fill="#FDF3E0"/>
</svg>
